<svg id="Layer_1" data-name="Layer 1" xmlns="http://www.w3.org/2000/svg" xmlns:xlink="http://www.w3.org/1999/xlink" viewBox="0 0 1920 1080.12"><defs><style>.cls-1{fill:#fff;}.cls-17,.cls-2{fill-opacity:0.47;}.cls-17,.cls-2,.cls-3,.cls-4,.cls-9{stroke:#fff;stroke-miterlimit:10;}.cls-2,.cls-3{stroke-width:2px;}.cls-3,.cls-4,.cls-9{fill:none;}.cls-4{stroke-width:0.95px;}.cls-5{opacity:0.85;}.cls-6{fill:url(#linear-gradient);}.cls-7{fill:url(#linear-gradient-2);}.cls-8{fill:#1b3531;}.cls-10{fill:url(#linear-gradient-3);}.cls-11{fill:url(#linear-gradient-4);}.cls-12{fill:url(#linear-gradient-5);}.cls-13{fill:url(#linear-gradient-6);}.cls-14{fill:#081010;}.cls-15{fill:url(#linear-gradient-7);}.cls-16{fill:url(#linear-gradient-8);}.cls-17{stroke-width:2.08px;}.cls-18{fill:url(#linear-gradient-9);}.cls-19{fill:url(#linear-gradient-10);}.cls-20{fill:url(#linear-gradient-11);}.cls-21{fill:url(#linear-gradient-12);}.cls-22{fill:url(#linear-gradient-13);}.cls-23{fill:url(#linear-gradient-14);}.cls-24{fill:url(#linear-gradient-15);}.cls-25{fill:url(#linear-gradient-16);}.cls-26{fill:url(#linear-gradient-17);}.cls-27{fill:url(#linear-gradient-18);}.cls-28{opacity:0.51;isolation:isolate;fill:url(#linear-gradient-19);}.cls-29{fill:url(#linear-gradient-20);}</style><linearGradient id="linear-gradient" x1="1645.71" y1="223.89" x2="1638.79" y2="223.89" gradientTransform="translate(0 568)" gradientUnits="userSpaceOnUse"><stop offset="0.16" stop-color="#fff"/><stop offset="0.25" stop-color="#f8f8f8"/><stop offset="0.39" stop-color="#e5e5e5"/><stop offset="0.55" stop-color="#c6c6c6"/><stop offset="0.72" stop-color="#9a9a9a"/><stop offset="0.91" stop-color="#636363"/><stop offset="1" stop-color="#474747"/></linearGradient><linearGradient id="linear-gradient-2" x1="1631.1" y1="230.38" x2="1631.1" y2="235.05" xlink:href="#linear-gradient"/><linearGradient id="linear-gradient-3" x1="618.79" y1="285.11" x2="612.8" y2="285.11" xlink:href="#linear-gradient"/><linearGradient id="linear-gradient-4" x1="606.1" y1="289.88" x2="606.1" y2="292.93" xlink:href="#linear-gradient"/><linearGradient id="linear-gradient-5" x1="1314.68" y1="285.21" x2="1320.71" y2="285.21" xlink:href="#linear-gradient"/><linearGradient id="linear-gradient-6" x1="1327.4" y1="289.99" x2="1327.4" y2="293" xlink:href="#linear-gradient"/><linearGradient id="linear-gradient-7" x1="285.79" y1="218.04" x2="293.8" y2="218.04" gradientTransform="translate(0 568)" gradientUnits="userSpaceOnUse"><stop offset="0.08" stop-color="#fff"/><stop offset="0.15" stop-color="#f7f7f7"/><stop offset="0.26" stop-color="#e1e1e1"/><stop offset="0.4" stop-color="#bdbdbd"/><stop offset="0.55" stop-color="#8b8b8b"/><stop offset="0.73" stop-color="#4b4b4b"/><stop offset="0.91"/></linearGradient><linearGradient id="linear-gradient-8" x1="299.48" y1="224.37" x2="299.48" y2="228.83" xlink:href="#linear-gradient"/><linearGradient id="linear-gradient-9" x1="1062.21" y1="-518.91" x2="1062.21" y2="-527.33" gradientTransform="translate(0 568)" gradientUnits="userSpaceOnUse"><stop offset="0.39" stop-color="#fff"/><stop offset="0.45" stop-color="#f7f7f7"/><stop offset="0.54" stop-color="#e1e1e1"/><stop offset="0.66" stop-color="#bebebe"/><stop offset="0.79" stop-color="#8c8c8c"/><stop offset="0.94" stop-color="#4d4d4d"/><stop offset="0.96" stop-color="#474747"/></linearGradient><linearGradient id="linear-gradient-10" x1="3031.53" y1="-1349.54" x2="3031.53" y2="-1359.26" gradientTransform="translate(2404.84 3091.92) rotate(-90)" xlink:href="#linear-gradient"/><linearGradient id="linear-gradient-11" x1="3031.52" y1="1473.47" x2="3031.52" y2="1467.66" gradientTransform="matrix(0, -1, -1, 0, 2508.64, 3091.92)" gradientUnits="userSpaceOnUse"><stop offset="0.16" stop-color="#fff"/><stop offset="0.25" stop-color="#f8f8f8"/><stop offset="0.39" stop-color="#e5e5e5"/><stop offset="0.54" stop-color="#c6c6c6"/><stop offset="0.72" stop-color="#9a9a9a"/><stop offset="0.91" stop-color="#636363"/><stop offset="1" stop-color="#454545"/></linearGradient><linearGradient id="linear-gradient-12" x1="3040.14" y1="-1338.73" x2="3040.14" y2="-1349.18" gradientTransform="translate(2404.84 3091.92) rotate(-90)" xlink:href="#linear-gradient"/><linearGradient id="linear-gradient-13" x1="3083.2" y1="-1324.18" x2="3083.2" y2="-1332.83" gradientTransform="translate(2404.84 3091.92) rotate(-90)" xlink:href="#linear-gradient"/><linearGradient id="linear-gradient-14" x1="3882.23" y1="-518.9" x2="3882.23" y2="-527.33" gradientTransform="matrix(-1, 0, 0, 1, 4751.59, 568)" xlink:href="#linear-gradient-9"/><linearGradient id="linear-gradient-15" x1="3031.53" y1="1470.48" x2="3031.53" y2="1460.75" gradientTransform="matrix(0, -1, -1, 0, 2346.75, 3091.92)" xlink:href="#linear-gradient"/><linearGradient id="linear-gradient-16" x1="3031.51" y1="-1346.55" x2="3031.51" y2="-1352.36" gradientTransform="translate(2242.95 3091.92) rotate(-90)" xlink:href="#linear-gradient-11"/><linearGradient id="linear-gradient-17" x1="3040.13" y1="1481.28" x2="3040.13" y2="1470.84" gradientTransform="matrix(0, -1, -1, 0, 2346.75, 3091.92)" xlink:href="#linear-gradient"/><linearGradient id="linear-gradient-18" x1="3083.2" y1="1495.83" x2="3083.2" y2="1487.19" gradientTransform="matrix(0, -1, -1, 0, 2346.75, 3091.92)" xlink:href="#linear-gradient"/><linearGradient id="linear-gradient-19" x1="944.61" y1="-532.38" x2="991.12" y2="-532.38" gradientTransform="translate(0 568)" gradientUnits="userSpaceOnUse"><stop offset="0" stop-color="#183439" stop-opacity="0"/><stop offset="0.03" stop-color="#0d2228" stop-opacity="0.47"/><stop offset="0.07" stop-color="#03131a" stop-opacity="0.88"/><stop offset="0.13" stop-color="#000e16"/><stop offset="0.52" stop-color="#000e16"/><stop offset="0.89" stop-color="#000e16"/><stop offset="0.94" stop-color="#03131b" stop-opacity="0.86"/><stop offset="0.98" stop-color="#0e252b" stop-opacity="0.4"/><stop offset="1" stop-color="#183439" stop-opacity="0"/></linearGradient><linearGradient id="linear-gradient-20" x1="967.53" y1="-567" x2="967.53" y2="-496.25" gradientTransform="translate(0 568)" gradientUnits="userSpaceOnUse"><stop offset="0" stop-color="#183439"/><stop offset="0.22" stop-color="#142e33"/><stop offset="0.52" stop-color="#091c23"/><stop offset="0.7" stop-color="#000e16"/></linearGradient></defs><path class="cls-1" d="M1079.81,0s-8,3.36-8,11.59V40.46c-21.69-.91-34,10.89-35.26,20.93h-6.32s5-25,35.7-27.64l.22-30H965.66V0Z"/><path class="cls-2" d="M1343.31,1.06l126.52.05-72.56,59.06h-74.88s6.5-16.6,21.22-19.25Z"/><path class="cls-3" d="M1036.25,60.39l286.07-.14c6.12-16.77,21.29-19.29,21.29-19.29l.05-40L1073,1.08"/><path class="cls-4" d="M1051.43,51.81l263.67-.05a32.47,32.47,0,0,1,18.74-18.09V8.81l-263-.07"/><g class="cls-5"><polygon class="cls-1" points="613.17 900.26 701.58 900.02 789.98 899.93 966.79 899.76 1143.59 899.93 1232 900.02 1320.4 900.26 1232 900.51 1143.59 900.6 966.79 900.76 789.98 900.6 701.58 900.51 613.17 900.26"/></g><g class="cls-5"><polygon class="cls-1" points="613.82 943.19 702.12 942.95 790.41 942.86 967 942.69 1143.59 942.86 1231.89 942.95 1320.18 943.19 1231.89 943.44 1143.59 943.52 967 943.69 790.41 943.52 702.12 943.43 613.82 943.19"/></g><g class="cls-5"><polygon class="cls-1" points="613.94 986.69 702.4 986.45 790.85 986.36 967.77 986.2 1144.68 986.36 1233.14 986.45 1321.6 986.69 1233.14 986.94 1144.68 987.03 967.77 987.19 790.85 987.03 702.4 986.94 613.94 986.69"/></g><g class="cls-5"><polygon class="cls-1" points="614.48 1030.28 702.86 1030.03 791.23 1029.94 967.99 1029.78 1144.74 1029.94 1233.12 1030.03 1321.49 1030.28 1233.12 1030.52 1144.74 1030.61 967.99 1030.78 791.23 1030.61 702.86 1030.52 614.48 1030.28"/></g><path class="cls-1" d="M1907.49,797.94l.08,268.36H1639.49l-.21-250.42s13.37-1,20.5-17.62l247.69-.29m1.26-1.27h-1.26l-247.69.3H1659l-.33.76c-6.7,15.66-18.91,16.85-19.43,16.9H1638v1.16l.22,250.42v1.27h270.6v-1.22l-.08-268.36v-1.26Z"/><path class="cls-1" d="M1641,790.65h10s-2.22,16.91-22.45,17v-4.49c.24,0,12.21-.79,16-10h-5.18"/><polygon class="cls-1" points="1628.47 803.13 1624.75 803.13 1624.8 1079.98 1628.71 1079.98 1628.47 803.13"/><path class="cls-6" d="M1640.33,790.66h5.38a6,6,0,0,1-1.21,2.46h-5.71Z"/><path class="cls-1" d="M1639.55,784.08c-2.57,10.19-10.32,9.56-10.32,9.56v9.56l3.74-.37v-4.45c3.62-1.06,7.34-5,9.56-10.4h275.33v289.21l-291.56-.13-.25,2.94h294V784.08Z"/><path class="cls-7" d="M1629.23,803.05v-3.6a10.13,10.13,0,0,0,3.73-1.07v3.91A27.7,27.7,0,0,1,1629.23,803.05Z"/><path class="cls-1" d="M1624.06,1051.14V1078H1598.2v-26.93h25.86m2-2h-29.7V1080H1626Z"/><path class="cls-1" d="M1611.06,1055.59l2.55,2.19.24.2h.33l3.33.26.27,3.34v.32l.2.24,2.19,2.55-2.19,2.54-.2.25v.31l-.3,3.4-3.33.25h-.33l-.24.21-2.55,2.18-2.54-2.18-.24-.21h-.32l-3.35-.25-.25-3.35v-.31l-.22-.25-2.18-2.54,2.18-2.55.22-.24v-.32l.25-3.34,3.35-.26h.32l.24-.2,2.54-2.19m0-1.29-3.18,2.73-4.18.32-.32,4.18-2.72,3.19,2.72,3.18.32,4.18,4.18.32,3.18,2.73,3.18-2.73,4.19-.32.32-4.18,2.73-3.18-2.73-3.19-.32-4.18-4.19-.32Z"/><polygon class="cls-1" points="1624.84 1073.67 1618.1 1079.98 1625.05 1079.98 1624.84 1073.67"/><polygon class="cls-8" points="1615.02 1064.72 1613.23 1066.76 1611.19 1068.55 1609.14 1066.76 1607.35 1064.72 1609.14 1062.67 1611.19 1060.88 1613.23 1062.67 1615.02 1064.72"/><polygon class="cls-9" points="1615.02 1064.72 1613.23 1066.76 1611.19 1068.55 1609.14 1066.76 1607.35 1064.72 1609.14 1062.67 1611.19 1060.88 1613.23 1062.67 1615.02 1064.72"/><polygon class="cls-1" points="604.48 860.92 600.76 860.98 600.79 1080.12 604.45 1080.12 604.48 860.92"/><path class="cls-1" d="M602.48,861s12,.47,15-6.73h-4.85L614.2,852H624s-1.68,12.57-19.71,14.32"/><path class="cls-10" d="M614.33,852h4.46a8.42,8.42,0,0,1-1.37,2.21H612.8Z"/><path class="cls-1" d="M612.18,846.7c-.7,7.86-8.44,7.55-8.44,7.55v6.92l4.8-.4v-2.89c3.3-1.62,5.63-2.3,7.71-7.32H966.12v226.5H602.35l-.23,3.06,366.21-.14-.09-233.26Z"/><path class="cls-11" d="M603.71,860.93V858.6a10.81,10.81,0,0,0,4.77-.72v2.47A17,17,0,0,1,603.71,860.93Z"/><path class="cls-1" d="M600.82,1067.46s-2,8.82-9.46,12.57h11.42v-12.65Z"/><polygon class="cls-1" points="1329.62 861.07 1333.35 861.12 1333.31 1080.02 1329.66 1080.02 1329.62 861.07"/><path class="cls-1" d="M1331,861s-12,.46-15-6.73h4.85l-1.58-2.18h-9.81s2.23,12.58,20.26,14.34"/><path class="cls-12" d="M1319.18,852.11h-4.5a8.33,8.33,0,0,0,1.36,2.2h4.67Z"/><path class="cls-1" d="M965.41,846.74h355.92c.7,7.87,8.44,7.56,8.44,7.56v6.92l-4.8-.4v-2.89c-3.3-1.63-5.63-2.3-7.71-7.33H967.39"/><polyline class="cls-1" points="967.51 1077.09 1331.28 1077.14 1331.47 1080.02 965.34 1080.01"/><path class="cls-13" d="M1329.8,861v-2.28a10.78,10.78,0,0,1-4.8-.72v2.43A17.29,17.29,0,0,0,1329.8,861Z"/><path class="cls-1" d="M1332.69,1067.53s2,8.82,9.46,12.57h-11.42v-12.65Z"/><path class="cls-14" d="M305.93,797.18h-4.56v-9.62s-7.91.65-10.54-9.75H0V1080H305.87Z"/><path class="cls-1" d="M11.78,792.25l257.37.29c7.27,17,20.94,18,20.94,18l-.23,255.78H11.7l.08-274.11M10.49,791v1.29l-.08,274.12v1.29H291.15v-1.29l.23-255.78v-1.2l-1.2-.09c-.52,0-13-1.23-19.84-17.26l-.34-.78h-.85L11.78,791Z"/><path class="cls-1" d="M292.26,784.81H280.57s3.14,17.26,23.8,17.32v-5c-.25,0-13.37-.44-17.29-9.87h6.81"/><polygon class="cls-1" points="303.44 797.18 307.53 797.16 307.48 1080.01 303.48 1080.01 303.44 797.18"/><path class="cls-15" d="M292.25,784.8h-6.46a7.71,7.71,0,0,0,1.38,2.49h6.63Z"/><path class="cls-1" d="M290.82,777.76c2.63,10.41,10.54,9.76,10.54,9.76v9.78l-3.83-.39v-5.23c-3.7-1.08-7.5-4.44-9.77-9.93H2.19v295.41l302.05-.13.25,3H0V777.76Z"/><path class="cls-16" d="M301.39,796.83v-3.55a13.92,13.92,0,0,1-3.82-.91v3.54A21.7,21.7,0,0,0,301.39,796.83Z"/><path class="cls-1" d="M306.82,1067.09s2,8.81,9.47,12.57H304.87V1067Z"/><path class="cls-1" d="M76.63,174.73c.17,8.54.27,17.08.39,25.62s.18,17.08.25,25.63v.63h-.65l-18.82.15-18.8.1L1.34,227h-1v-1q0-18.19.06-36.37V171.45q0-9.09.11-18.18v-.78h.76l32.88.28c11,.16,21.92.26,32.88.49-11,.22-21.92.32-32.88.48L1.34,154l.77-.76q.09,9.09.1,18.18V189.6c0,12.12.1,24.24.06,36.37l-1-1L39,225.1l18.82.08,18.82.15L76,226c.08-8.55.12-17.09.26-25.63S76.46,183.27,76.63,174.73Z"/><path class="cls-1" d="M76.63,174.73c.17,8.54.27,17.08.39,25.62s.18,17.08.25,25.63v.63h-.65l-18.82.15-18.8.1L1.34,227h-1v-1q0-18.19.06-36.37V171.45q0-9.09.11-18.18v-.78h.76l32.88.28c11,.16,21.92.26,32.88.49-11,.22-21.92.32-32.88.48L1.34,154l.77-.76q.09,9.09.1,18.18V189.6c0,12.12.1,24.24.06,36.37l-1-1L39,225.1l18.82.08,18.82.15L76,226c.08-8.55.12-17.09.26-25.63S76.46,183.27,76.63,174.73Z"/><path d="M72.33,154a9.58,9.58,0,1,1-9.57,9.59h0A9.6,9.6,0,0,1,72.33,154m0-2a11.58,11.58,0,1,0,11.58,11.58A11.57,11.57,0,0,0,72.33,152Z"/><path class="cls-1" d="M72.33,152a11.58,11.58,0,1,1-11.57,11.59h0A11.57,11.57,0,0,1,72.31,152h0m0-1A12.58,12.58,0,1,0,84.9,163.58,12.58,12.58,0,0,0,72.32,151Z"/><polyline class="cls-9" points="61.87 157.26 29.7 157.26 29.7 200.42 72.46 200.42 72.46 175.7"/><path class="cls-1" d="M76.63,277.69c.17,8.54.27,17.08.39,25.62s.18,17.09.25,25.63v.63h-.65l-18.82.15-18.8.1-37.65.1h-1v-1q0-18.18.06-36.37V274.37q0-9.09.11-18.18v-.77h.76l32.88.28c11,.16,21.92.26,32.88.49-11,.22-21.92.32-32.88.48L1.34,257l.77-.76q.09,9.09.1,18.18V292.6c0,12.12.1,24.25.06,36.37l-1-1,37.65.11,18.82.08,18.82.16-.64.64c.08-8.54.12-17.09.26-25.63S76.46,286.23,76.63,277.69Z"/><path class="cls-1" d="M76.63,277.69c.17,8.54.27,17.08.39,25.62s.18,17.09.25,25.63v.63h-.65l-18.82.15-18.8.1-37.65.1h-1v-1q0-18.18.06-36.37V274.37q0-9.09.11-18.18v-.77h.76l32.88.28c11,.16,21.92.26,32.88.49-11,.22-21.92.32-32.88.48L1.34,257l.77-.76q.09,9.09.1,18.18V292.6c0,12.12.1,24.25.06,36.37l-1-1,37.65.11,18.82.08,18.82.16-.64.64c.08-8.54.12-17.09.26-25.63S76.46,286.23,76.63,277.69Z"/><path d="M72.33,257a9.58,9.58,0,1,1-9.57,9.59h0A9.6,9.6,0,0,1,72.33,257m0-2a11.58,11.58,0,1,0,11.58,11.58h0A11.57,11.57,0,0,0,72.35,255h0Z"/><path class="cls-1" d="M72.33,255a11.58,11.58,0,1,1-11.57,11.59h0A11.57,11.57,0,0,1,72.31,255h0m0-1A12.58,12.58,0,1,0,84.9,266.58h0A12.59,12.59,0,0,0,72.33,254Z"/><polyline class="cls-9" points="61.87 260.22 29.7 260.22 29.7 303.38 72.46 303.38 72.46 278.66"/><path class="cls-17" d="M587.27,1.08H460.74l72.56,59.1h75.26s-5.63-15.74-21.24-18.49Z"/><path class="cls-1" d="M76.63,380.65c.17,8.54.27,17.08.39,25.63s.18,17.08.25,25.62v.63h-.65l-18.82.16-18.8.09-37.65.1h-1v-1q0-18.18.06-36.37V377.33q0-9.09.11-18.18v-.77h.76l32.88.28c11,.17,21.92.26,32.88.49-11,.22-21.92.32-32.88.48l-32.88.28.77-.76q.09,9.09.1,18.18v18.18c0,12.12.1,24.25.06,36.37l-1-1L39,431l18.82.08,18.82.16-.64.64c.08-8.54.12-17.08.26-25.62S76.46,389.19,76.63,380.65Z"/><path class="cls-1" d="M76.63,380.65c.17,8.54.27,17.08.39,25.63s.18,17.08.25,25.62v.63h-.65l-18.82.16-18.8.09-37.65.1h-1v-1q0-18.18.06-36.37V377.33q0-9.09.11-18.18v-.77h.76l32.88.28c11,.17,21.92.26,32.88.49-11,.22-21.92.32-32.88.48l-32.88.28.77-.76q.09,9.09.1,18.18v18.18c0,12.12.1,24.25.06,36.37l-1-1L39,431l18.82.08,18.82.16-.64.64c.08-8.54.12-17.08.26-25.62S76.46,389.19,76.63,380.65Z"/><path d="M72.33,359.92a9.58,9.58,0,1,1-9.57,9.59h0a9.6,9.6,0,0,1,9.57-9.58m0-2a11.58,11.58,0,1,0,11.58,11.58h0a11.57,11.57,0,0,0-11.56-11.58h0Z"/><path class="cls-1" d="M72.33,357.92a11.58,11.58,0,1,1-11.57,11.59h0a11.58,11.58,0,0,1,11.57-11.58m0-1a12.58,12.58,0,1,0,12.58,12.58h0a12.59,12.59,0,0,0-12.58-12.58Z"/><polyline class="cls-9" points="61.87 363.18 29.7 363.18 29.7 406.34 72.46 406.34 72.46 381.62"/><path class="cls-1" d="M76.63,483.61c.17,8.54.27,17.09.39,25.63s.18,17.08.25,25.62v.64h-.65l-18.82.16-18.8.08-37.65.1h-1v-1q0-18.18.06-36.37V480.29q0-9.09.11-18.18v-.77h.76l32.88.28c11,.17,21.92.26,32.88.49-11,.22-21.92.32-32.88.49l-32.88.27.77-.76q.09,9.09.1,18.18v18.18c0,12.13.1,24.25.06,36.37l-1-1L39,534l18.82.08,18.82.16-.64.64c.08-8.54.12-17.08.26-25.62S76.46,492.15,76.63,483.61Z"/><path class="cls-1" d="M76.63,483.61c.17,8.54.27,17.09.39,25.63s.18,17.08.25,25.62v.64h-.65l-18.82.16-18.8.08-37.65.1h-1v-1q0-18.18.06-36.37V480.29q0-9.09.11-18.18v-.77h.76l32.88.28c11,.17,21.92.26,32.88.49-11,.22-21.92.32-32.88.49l-32.88.27.77-.76q.09,9.09.1,18.18v18.18c0,12.13.1,24.25.06,36.37l-1-1L39,534l18.82.08,18.82.16-.64.64c.08-8.54.12-17.08.26-25.62S76.46,492.15,76.63,483.61Z"/><path d="M72.33,462.88a9.58,9.58,0,1,1-9.57,9.59h0a9.6,9.6,0,0,1,9.57-9.58m0-2a11.58,11.58,0,1,0,11.58,11.58h0a11.57,11.57,0,0,0-11.55-11.59h0Z"/><path class="cls-1" d="M72.33,460.88a11.58,11.58,0,1,1-11.57,11.59h0a11.58,11.58,0,0,1,11.57-11.58m0-1a12.58,12.58,0,1,0,12.58,12.58h0a12.59,12.59,0,0,0-12.58-12.59Z"/><polyline class="cls-9" points="61.87 466.14 29.7 466.14 29.7 509.3 72.46 509.3 72.46 484.58"/><path class="cls-1" d="M76.63,586.57c.17,8.55.27,17.09.39,25.63s.18,17.08.25,25.62v.64h-.65l-18.82.16L39,638.7l-37.65.1h-1v-1q0-18.18.06-36.37V583.25q0-9.09.11-18.18v-.77h.76l32.88.28c11,.17,21.92.26,32.88.49-11,.22-21.92.32-32.88.49l-32.88.27.77-.76q.09,9.09.1,18.18v18.18c0,12.13.1,24.25.06,36.37l-1-1,37.65.1,18.82.08,18.82.16-.64.64c.08-8.54.12-17.08.26-25.62S76.46,595.12,76.63,586.57Z"/><path class="cls-1" d="M76.63,586.57c.17,8.55.27,17.09.39,25.63s.18,17.08.25,25.62v.64h-.65l-18.82.16L39,638.7l-37.65.1h-1v-1q0-18.18.06-36.37V583.25q0-9.09.11-18.18v-.77h.76l32.88.28c11,.17,21.92.26,32.88.49-11,.22-21.92.32-32.88.49l-32.88.27.77-.76q.09,9.09.1,18.18v18.18c0,12.13.1,24.25.06,36.37l-1-1,37.65.1,18.82.08,18.82.16-.64.64c.08-8.54.12-17.08.26-25.62S76.46,595.12,76.63,586.57Z"/><path d="M72.33,565.84a9.58,9.58,0,1,1-9.57,9.59h0a9.6,9.6,0,0,1,9.57-9.58m0-2a11.58,11.58,0,1,0,11.58,11.58,11.57,11.57,0,0,0-11.58-11.58Z"/><path class="cls-1" d="M72.33,563.84a11.58,11.58,0,1,1-11.57,11.59h0a11.58,11.58,0,0,1,11.57-11.58m0-1a12.58,12.58,0,1,0,12.58,12.58,12.58,12.58,0,0,0-12.58-12.58h0Z"/><polyline class="cls-9" points="61.87 569.11 29.7 569.11 29.7 612.26 72.46 612.26 72.46 587.54"/><path class="cls-1" d="M1842.59,174.73c.17,8.54.26,17.08.38,25.62s.18,17.08.26,25.63l-.64-.65,18.82-.15,18.82-.08,37.65-.11-1,1c0-12.13,0-24.25.07-36.37V171.44q0-9.09.1-18.18l.77.76-32.88-.28c-11-.16-21.92-.26-32.88-.48,11-.23,21.92-.33,32.88-.49l32.88-.28h.75v.78q.09,9.09.1,18.18v18.18c0,12.12.11,24.24.07,36.37v1h-1l-37.65-.1-18.82-.09-18.82-.15h-.65V226c.08-8.55.12-17.09.26-25.63S1842.41,183.27,1842.59,174.73Z"/><path class="cls-1" d="M1842.59,174.73c.17,8.54.26,17.08.38,25.62s.18,17.08.26,25.63l-.64-.65,18.82-.15,18.82-.08,37.65-.11-1,1c0-12.13,0-24.25.07-36.37V171.44q0-9.09.1-18.18l.77.76-32.88-.28c-11-.16-21.92-.26-32.88-.48,11-.23,21.92-.33,32.88-.49l32.88-.28h.75v.78q.09,9.09.1,18.18v18.18c0,12.12.11,24.24.07,36.37v1h-1l-37.65-.1-18.82-.09-18.82-.15h-.65V226c.08-8.55.12-17.09.26-25.63S1842.41,183.27,1842.59,174.73Z"/><path d="M1846.89,154a9.58,9.58,0,1,1-9.58,9.58h0a9.59,9.59,0,0,1,9.58-9.58m0-2a11.58,11.58,0,1,0,11.57,11.59h0A11.57,11.57,0,0,0,1846.91,152h0Z"/><path class="cls-1" d="M1846.89,152a11.58,11.58,0,1,1-11.58,11.58h0A11.57,11.57,0,0,1,1846.87,152h0m0-1a12.58,12.58,0,1,0,12.57,12.59h0A12.59,12.59,0,0,0,1846.89,151Z"/><polyline class="cls-9" points="1857.35 157.26 1889.52 157.26 1889.52 200.42 1846.76 200.42 1846.76 175.7"/><path class="cls-1" d="M1842.59,277.69c.17,8.54.26,17.08.38,25.62s.18,17.09.26,25.63l-.64-.64,18.82-.16,18.82-.08,37.65-.11-1,1c0-12.12,0-24.25.07-36.37V274.4q0-9.09.1-18.18l.77.76-32.88-.28c-11-.16-21.92-.26-32.88-.48,11-.23,21.92-.33,32.88-.49l32.88-.28h.75v.77q.09,9.09.1,18.18v18.18c0,12.12.11,24.25.07,36.37v1h-1l-37.65-.1-18.82-.09-18.82-.15h-.65V329c.08-8.54.12-17.09.26-25.63S1842.41,286.23,1842.59,277.69Z"/><path class="cls-1" d="M1842.59,277.69c.17,8.54.26,17.08.38,25.62s.18,17.09.26,25.63l-.64-.64,18.82-.16,18.82-.08,37.65-.11-1,1c0-12.12,0-24.25.07-36.37V274.4q0-9.09.1-18.18l.77.76-32.88-.28c-11-.16-21.92-.26-32.88-.48,11-.23,21.92-.33,32.88-.49l32.88-.28h.75v.77q.09,9.09.1,18.18v18.18c0,12.12.11,24.25.07,36.37v1h-1l-37.65-.1-18.82-.09-18.82-.15h-.65V329c.08-8.54.12-17.09.26-25.63S1842.41,286.23,1842.59,277.69Z"/><path d="M1846.89,257a9.58,9.58,0,1,1-9.58,9.58h0a9.59,9.59,0,0,1,9.58-9.58m0-2a11.58,11.58,0,1,0,11.57,11.59h0A11.57,11.57,0,0,0,1846.91,255h0Z"/><path class="cls-1" d="M1846.89,255a11.58,11.58,0,1,1-11.58,11.58h0A11.57,11.57,0,0,1,1846.87,255h0m0-1a12.58,12.58,0,1,0,12.57,12.59h0A12.59,12.59,0,0,0,1846.89,254Z"/><polyline class="cls-9" points="1857.35 260.22 1889.52 260.22 1889.52 303.38 1846.76 303.38 1846.76 278.66"/><path class="cls-1" d="M1842.59,380.65c.17,8.54.26,17.08.38,25.63s.18,17.08.26,25.62l-.64-.64,18.82-.16,18.82-.08,37.65-.1-1,1c0-12.12,0-24.25.07-36.37V377.37q0-9.09.1-18.18l.77.76-32.88-.28c-11-.16-21.92-.26-32.88-.48,11-.23,21.92-.32,32.88-.49l32.88-.28h.75v.77q.09,9.09.1,18.18v18.18c0,12.12.11,24.25.07,36.37v1h-1l-37.65-.1-18.82-.08-18.82-.16h-.65V432c.08-8.54.12-17.08.26-25.62S1842.41,389.19,1842.59,380.65Z"/><path class="cls-1" d="M1842.59,380.65c.17,8.54.26,17.08.38,25.63s.18,17.08.26,25.62l-.64-.64,18.82-.16,18.82-.08,37.65-.1-1,1c0-12.12,0-24.25.07-36.37V377.37q0-9.09.1-18.18l.77.76-32.88-.28c-11-.16-21.92-.26-32.88-.48,11-.23,21.92-.32,32.88-.49l32.88-.28h.75v.77q.09,9.09.1,18.18v18.18c0,12.12.11,24.25.07,36.37v1h-1l-37.65-.1-18.82-.08-18.82-.16h-.65V432c.08-8.54.12-17.08.26-25.62S1842.41,389.19,1842.59,380.65Z"/><path d="M1846.89,359.92a9.58,9.58,0,1,1-9.58,9.58h0a9.59,9.59,0,0,1,9.58-9.58m0-2a11.58,11.58,0,1,0,11.57,11.59h0A11.57,11.57,0,0,0,1846.89,357.92Z"/><path class="cls-1" d="M1846.89,357.92a11.58,11.58,0,1,1-11.58,11.58h0a11.57,11.57,0,0,1,11.56-11.58h0m0-1a12.58,12.58,0,1,0,12.57,12.59h0A12.58,12.58,0,0,0,1846.89,356.92Z"/><polyline class="cls-9" points="1857.35 363.18 1889.52 363.18 1889.52 406.34 1846.76 406.34 1846.76 381.62"/><path class="cls-1" d="M1842.59,483.61c.17,8.54.26,17.09.38,25.63s.18,17.08.26,25.62l-.64-.64,18.82-.16,18.82-.08,37.65-.1-1,1c0-12.12,0-24.24.07-36.37V480.33q0-9.09.1-18.18l.77.76-32.88-.27c-11-.17-21.92-.27-32.88-.49,11-.23,21.92-.32,32.88-.49l32.88-.28h.75v.77q.09,9.09.1,18.18v18.18c0,12.13.11,24.25.07,36.37v1h-1l-37.65-.1-18.82-.08-18.82-.16h-.65v-.64c.08-8.54.12-17.08.26-25.62S1842.41,492.15,1842.59,483.61Z"/><path class="cls-1" d="M1842.59,483.61c.17,8.54.26,17.09.38,25.63s.18,17.08.26,25.62l-.64-.64,18.82-.16,18.82-.08,37.65-.1-1,1c0-12.12,0-24.24.07-36.37V480.33q0-9.09.1-18.18l.77.76-32.88-.27c-11-.17-21.92-.27-32.88-.49,11-.23,21.92-.32,32.88-.49l32.88-.28h.75v.77q.09,9.09.1,18.18v18.18c0,12.13.11,24.25.07,36.37v1h-1l-37.65-.1-18.82-.08-18.82-.16h-.65v-.64c.08-8.54.12-17.08.26-25.62S1842.41,492.15,1842.59,483.61Z"/><path d="M1846.89,462.88a9.58,9.58,0,1,1-9.58,9.58h0a9.59,9.59,0,0,1,9.58-9.58m0-2a11.58,11.58,0,1,0,11.57,11.59h0A11.57,11.57,0,0,0,1846.89,460.88Z"/><path class="cls-1" d="M1846.89,460.88a11.58,11.58,0,1,1-11.58,11.58h0a11.57,11.57,0,0,1,11.56-11.58h0m0-1a12.58,12.58,0,1,0,12.57,12.59h0A12.61,12.61,0,0,0,1846.89,459.88Z"/><polyline class="cls-9" points="1857.35 466.14 1889.52 466.14 1889.52 509.3 1846.76 509.3 1846.76 484.58"/><path class="cls-1" d="M1842.59,586.57c.17,8.55.26,17.09.38,25.63s.18,17.08.26,25.62l-.64-.64,18.82-.16,18.82-.08,37.65-.1-1,1c0-12.12,0-24.24.07-36.37V583.29q0-9.09.1-18.18l.77.76-32.88-.27c-11-.17-21.92-.27-32.88-.49,11-.23,21.92-.32,32.88-.49l32.88-.28h.75v.77q.09,9.09.1,18.18v18.18c0,12.13.11,24.25.07,36.37v1h-1l-37.65-.1-18.82-.08-18.82-.16h-.65v-.64c.08-8.54.12-17.08.26-25.62S1842.41,595.12,1842.59,586.57Z"/><path class="cls-1" d="M1842.59,586.57c.17,8.55.26,17.09.38,25.63s.18,17.08.26,25.62l-.64-.64,18.82-.16,18.82-.08,37.65-.1-1,1c0-12.12,0-24.24.07-36.37V583.29q0-9.09.1-18.18l.77.76-32.88-.27c-11-.17-21.92-.27-32.88-.49,11-.23,21.92-.32,32.88-.49l32.88-.28h.75v.77q.09,9.09.1,18.18v18.18c0,12.13.11,24.25.07,36.37v1h-1l-37.65-.1-18.82-.08-18.82-.16h-.65v-.64c.08-8.54.12-17.08.26-25.62S1842.41,595.12,1842.59,586.57Z"/><path d="M1846.89,565.84a9.58,9.58,0,1,1-9.58,9.58h0a9.59,9.59,0,0,1,9.58-9.58m0-2a11.58,11.58,0,1,0,11.57,11.59h0A11.57,11.57,0,0,0,1846.89,563.84Z"/><path class="cls-1" d="M1846.89,563.84a11.58,11.58,0,1,1-11.58,11.58h0a11.57,11.57,0,0,1,11.56-11.58h0m0-1a12.58,12.58,0,1,0,12.57,12.59h0A12.61,12.61,0,0,0,1846.89,562.84Z"/><polyline class="cls-9" points="1857.35 569.11 1889.52 569.11 1889.52 612.26 1846.76 612.26 1846.76 587.54"/><path class="cls-1" d="M1064.34,39.68v9.41a43.48,43.48,0,0,0-7.1,2.45c-6,2.66-14,8.52-15.52,21.18H967.09V67.49h70.54c5.55-19.73,22.49-22.36,22.49-22.36l.12-9.1Z"/><path class="cls-18" d="M1060.08,41.28a27.85,27.85,0,0,1,4.26-.61v8.42l-4.22-3.94Z"/><path class="cls-19" d="M1045.58,61.39l1.39-2h8.33l-1.92,2Z"/><path class="cls-20" d="M1039.92,61.4a14.25,14.25,0,0,1,1.07-2h-4.09l-1.72,2Z"/><path class="cls-21" d="M1055.66,52.28s1.29-.67,2.12-1h8.33l-.93,1Z"/><path class="cls-22" d="M1072,9.22a8.56,8.56,0,0,1,.24-1h8.41l-.93,1Z"/><path class="cls-1" d="M851.77,0s8,3.35,8,11.59V40.46c21.69-.91,34,10.89,35.26,20.92h6.32s-5-25-35.71-27.63l-.22-30H965.87V0Z"/><path class="cls-3" d="M895.33,60.4,609,60.27a28,28,0,0,0-21.65-18.54L587.3,1.09H858.61"/><path class="cls-4" d="M880.14,51.82H616.47a32.44,32.44,0,0,0-18.73-18.1V8.82l263-.08"/><path class="cls-1" d="M867.24,39.68V49.1a42.42,42.42,0,0,1,7.09,2.44c6,2.66,14,8.53,15.52,21.18h77.62V67.49H894c-5.55-19.73-22.5-22.35-22.5-22.35l-.12-9.1Z"/><path class="cls-23" d="M871.49,41.28a27.85,27.85,0,0,0-4.26-.61V49.1l4.21-3.94Z"/><path class="cls-24" d="M886,61.39l-1.39-2h-8.34l1.92,2Z"/><path class="cls-25" d="M891.66,61.41a14.25,14.25,0,0,0-1.07-2h4.09l1.72,2Z"/><path class="cls-26" d="M875.91,52.29c-.69-.37-1.4-.7-2.12-1h-8.32l.93,1Z"/><path class="cls-27" d="M859.56,9.22c-.06-.34-.14-.67-.23-1h-8.41l.93.95Z"/><rect class="cls-9" x="1762.07" y="27.56" width="130.05" height="55.4"/><rect class="cls-9" x="26.91" y="27.33" width="129.99" height="55.4"/><path class="cls-1" d="M29.7,929.3c10.27-.22,20.54-.32,30.81-.49l30.81-.27c20.54-.17,41.08-.15,61.62-.24,20.54.08,41.08.07,61.62.23l30.81.28c10.27.17,20.54.26,30.81.49-10.27.23-20.54.33-30.81.49l-30.81.28c-20.54.16-41.08.15-61.62.23-20.54-.08-41.08-.07-61.62-.23l-30.81-.28C50.24,929.62,40,929.53,29.7,929.3Z"/><rect class="cls-28" x="944.61" y="3.76" width="46.51" height="63.73"/><rect class="cls-29" x="950.82" y="1" width="33.42" height="70.75"/><path class="cls-1" d="M983.24,2V70.75H951.82V2h31.42m2-2H949.82V72.75h35.42Z"/><polygon class="cls-1" points="973.41 30.69 973.41 21.2 961.54 21.2 961.54 30.48 971.03 40.03 971.03 45.91 963.92 45.91 963.92 38.82 961.54 38.82 961.54 48.29 973.41 48.29 973.41 39.01 963.9 29.5 963.9 23.58 970.99 23.58 970.99 30.69 973.41 30.69"/><polygon class="cls-1" points="966.26 25.96 966.26 28.29 968.62 30.65 968.62 25.96 966.26 25.96"/><polygon class="cls-1" points="976 35.97 973.68 35.97 971.24 33.53 976 33.53 976 35.97"/><polygon class="cls-1" points="958.94 33.53 961.27 33.53 963.71 35.97 958.94 35.97 958.94 33.53"/><polygon class="cls-1" points="968.66 43.55 968.66 41.23 966.29 38.86 966.29 43.55 968.66 43.55"/></svg>