<svg xmlns="http://www.w3.org/2000/svg" xmlns:xlink="http://www.w3.org/1999/xlink" viewBox="0 0 750.79 233.42"><defs><style>.cls-1{fill:#fff;}.cls-2{fill:url(#linear-gradient);}.cls-3{fill:url(#linear-gradient-2);}.cls-4{fill:url(#linear-gradient-3);}.cls-5{fill:url(#linear-gradient-4);}</style><linearGradient id="linear-gradient" x1="27.43" y1="-561.6" x2="21.44" y2="-561.6" gradientTransform="translate(0 568)" gradientUnits="userSpaceOnUse"><stop offset="0.16" stop-color="#fff"/><stop offset="0.25" stop-color="#f8f8f8"/><stop offset="0.39" stop-color="#e5e5e5"/><stop offset="0.55" stop-color="#c6c6c6"/><stop offset="0.72" stop-color="#9a9a9a"/><stop offset="0.91" stop-color="#636363"/><stop offset="1" stop-color="#474747"/></linearGradient><linearGradient id="linear-gradient-2" x1="14.74" y1="-556.82" x2="14.74" y2="-553.77" xlink:href="#linear-gradient"/><linearGradient id="linear-gradient-3" x1="723.32" y1="-561.49" x2="729.35" y2="-561.49" xlink:href="#linear-gradient"/><linearGradient id="linear-gradient-4" x1="736.04" y1="-556.71" x2="736.04" y2="-553.7" xlink:href="#linear-gradient"/></defs><g id="Layer_2" data-name="Layer 2"><g id="Scoreboard"><polygon class="cls-1" points="13.12 14.22 9.4 14.28 9.43 233.42 13.09 233.42 13.12 14.22"/><path class="cls-1" d="M11.12,14.3s12,.47,15-6.73H21.27L22.84,5.3h9.8S31,17.87,12.93,19.62"/><path class="cls-2" d="M23,5.3h4.46a8.42,8.42,0,0,1-1.37,2.21H21.44Z"/><path class="cls-1" d="M20.82,0c-.7,7.86-8.44,7.55-8.44,7.55v6.92l4.8-.4V11.18c3.3-1.62,5.63-2.3,7.71-7.32H374.76v226.5H11l-.23,3.06L377,233.28,376.88,0Z"/><path class="cls-3" d="M12.35,14.23V11.9a10.81,10.81,0,0,0,4.77-.72v2.47A17,17,0,0,1,12.35,14.23Z"/><path class="cls-1" d="M9.46,220.76s-2,8.82-9.46,12.57H11.42V220.68Z"/><polygon class="cls-1" points="738.26 14.37 741.99 14.42 741.95 233.32 738.3 233.32 738.26 14.37"/><path class="cls-1" d="M739.64,14.3s-12,.46-15-6.73h4.85l-1.58-2.18H718.1S720.33,18,738.36,19.73"/><path class="cls-4" d="M727.82,5.41h-4.5a8.33,8.33,0,0,0,1.36,2.2h4.67Z"/><path class="cls-1" d="M374.05,0H730c.7,7.87,8.44,7.56,8.44,7.56v6.92l-4.8-.4V11.23c-3.3-1.63-5.63-2.3-7.71-7.33H376"/><polyline class="cls-1" points="376.15 230.39 739.92 230.44 740.11 233.32 373.98 233.31"/><path class="cls-5" d="M738.44,14.3V12a10.78,10.78,0,0,1-4.8-.72v2.43A17.29,17.29,0,0,0,738.44,14.3Z"/><path class="cls-1" d="M741.33,220.83s2,8.82,9.46,12.57H739.37V220.75Z"/></g></g></svg>