<svg id="Layer_1" data-name="Layer 1" xmlns="http://www.w3.org/2000/svg" xmlns:xlink="http://www.w3.org/1999/xlink" viewBox="0 0 1920 1080"><defs><style>.cls-1{fill:#fff;}.cls-17,.cls-2{fill-opacity:0.47;}.cls-17,.cls-2,.cls-3,.cls-32,.cls-4,.cls-9{stroke:#fff;stroke-miterlimit:10;}.cls-2,.cls-3{stroke-width:2px;}.cls-3,.cls-32,.cls-4,.cls-9{fill:none;}.cls-4{stroke-width:0.95px;}.cls-5{opacity:0.85;}.cls-6{fill:url(#linear-gradient);}.cls-7{fill:url(#linear-gradient-2);}.cls-8{fill:#1b3531;}.cls-10{fill:url(#linear-gradient-3);}.cls-11{fill:url(#linear-gradient-4);}.cls-12{fill:url(#linear-gradient-5);}.cls-13{fill:url(#linear-gradient-6);}.cls-14{fill:#081010;}.cls-15{fill:url(#linear-gradient-7);}.cls-16{fill:url(#linear-gradient-8);}.cls-17{stroke-width:2.08px;}.cls-18{fill:url(#linear-gradient-9);}.cls-19{fill:url(#linear-gradient-10);}.cls-20{fill:url(#linear-gradient-11);}.cls-21{fill:url(#linear-gradient-12);}.cls-22{fill:url(#linear-gradient-13);}.cls-23{fill:url(#linear-gradient-14);}.cls-24{fill:#142d32;}.cls-25{fill:url(#linear-gradient-15);}.cls-26{fill:url(#linear-gradient-16);}.cls-27{fill:url(#linear-gradient-17);}.cls-28{fill:url(#linear-gradient-18);}.cls-29{fill:url(#linear-gradient-19);}.cls-30{fill:url(#linear-gradient-20);}.cls-31{fill:url(#linear-gradient-21);}</style><linearGradient id="linear-gradient" x1="1639.83" y1="785.7" x2="1632.76" y2="785.7" gradientUnits="userSpaceOnUse"><stop offset="0.16" stop-color="#fff"/><stop offset="0.25" stop-color="#f8f8f8"/><stop offset="0.39" stop-color="#e5e5e5"/><stop offset="0.55" stop-color="#c6c6c6"/><stop offset="0.72" stop-color="#9a9a9a"/><stop offset="0.91" stop-color="#636363"/><stop offset="1" stop-color="#474747"/></linearGradient><linearGradient id="linear-gradient-2" x1="1624.89" y1="792.34" x2="1624.89" y2="797.11" xlink:href="#linear-gradient"/><linearGradient id="linear-gradient-3" x1="618.79" y1="853.13" x2="612.8" y2="853.13" xlink:href="#linear-gradient"/><linearGradient id="linear-gradient-4" x1="606.1" y1="857.88" x2="606.1" y2="860.93" xlink:href="#linear-gradient"/><linearGradient id="linear-gradient-5" x1="1314.68" y1="853.2" x2="1320.71" y2="853.2" xlink:href="#linear-gradient"/><linearGradient id="linear-gradient-6" x1="1327.41" y1="857.99" x2="1327.41" y2="861" xlink:href="#linear-gradient"/><linearGradient id="linear-gradient-7" x1="285.79" y1="786.06" x2="293.8" y2="786.06" gradientUnits="userSpaceOnUse"><stop offset="0.08" stop-color="#fff"/><stop offset="0.15" stop-color="#f7f7f7"/><stop offset="0.26" stop-color="#e1e1e1"/><stop offset="0.4" stop-color="#bdbdbd"/><stop offset="0.55" stop-color="#8b8b8b"/><stop offset="0.73" stop-color="#4b4b4b"/><stop offset="0.91"/></linearGradient><linearGradient id="linear-gradient-8" x1="299.46" y1="792.37" x2="299.46" y2="796.83" xlink:href="#linear-gradient"/><linearGradient id="linear-gradient-9" x1="1062.21" y1="49.09" x2="1062.21" y2="40.67" gradientUnits="userSpaceOnUse"><stop offset="0.39" stop-color="#fff"/><stop offset="0.45" stop-color="#f7f7f7"/><stop offset="0.54" stop-color="#e1e1e1"/><stop offset="0.66" stop-color="#bebebe"/><stop offset="0.79" stop-color="#8c8c8c"/><stop offset="0.94" stop-color="#4d4d4d"/><stop offset="0.96" stop-color="#474747"/></linearGradient><linearGradient id="linear-gradient-10" x1="1055.54" y1="58.46" x2="1055.54" y2="48.74" gradientTransform="translate(996.84 1115.92) rotate(-90)" xlink:href="#linear-gradient"/><linearGradient id="linear-gradient-11" x1="1055.53" y1="65.47" x2="1055.53" y2="59.66" gradientTransform="matrix(0, -1, -1, 0, 1100.64, 1115.92)" gradientUnits="userSpaceOnUse"><stop offset="0.16" stop-color="#fff"/><stop offset="0.25" stop-color="#f8f8f8"/><stop offset="0.39" stop-color="#e5e5e5"/><stop offset="0.54" stop-color="#c6c6c6"/><stop offset="0.72" stop-color="#9a9a9a"/><stop offset="0.91" stop-color="#636363"/><stop offset="1" stop-color="#454545"/></linearGradient><linearGradient id="linear-gradient-12" x1="1064.13" y1="69.27" x2="1064.13" y2="58.82" gradientTransform="translate(996.84 1115.92) rotate(-90)" xlink:href="#linear-gradient"/><linearGradient id="linear-gradient-13" x1="967.57" y1="1.12" x2="967.57" y2="62.67" gradientUnits="userSpaceOnUse"><stop offset="0" stop-color="#183439"/><stop offset="0.24" stop-color="#162f33"/><stop offset="0.57" stop-color="#0f1f21"/><stop offset="0.7" stop-color="#0b1718"/></linearGradient><linearGradient id="linear-gradient-14" x1="1114.04" y1="-3.4" x2="1114.04" y2="-18.69" gradientTransform="translate(996.84 1115.92) rotate(-90)" xlink:href="#linear-gradient"/><linearGradient id="linear-gradient-15" x1="1107.16" y1="83.82" x2="1107.16" y2="75.17" gradientTransform="translate(996.84 1115.92) rotate(-90)" xlink:href="#linear-gradient"/><linearGradient id="linear-gradient-16" x1="1066.23" y1="49.1" x2="1066.23" y2="40.67" gradientTransform="matrix(-1, 0, 0, 1, 1935.59, 0)" xlink:href="#linear-gradient-9"/><linearGradient id="linear-gradient-17" x1="1055.53" y1="62.48" x2="1055.53" y2="52.75" gradientTransform="matrix(0, -1, -1, 0, 938.75, 1115.92)" xlink:href="#linear-gradient"/><linearGradient id="linear-gradient-18" x1="1055.52" y1="61.45" x2="1055.52" y2="55.64" gradientTransform="translate(834.95 1115.92) rotate(-90)" xlink:href="#linear-gradient-11"/><linearGradient id="linear-gradient-19" x1="1064.12" y1="73.28" x2="1064.12" y2="62.84" gradientTransform="matrix(0, -1, -1, 0, 938.75, 1115.92)" xlink:href="#linear-gradient"/><linearGradient id="linear-gradient-20" x1="1107.15" y1="87.83" x2="1107.15" y2="79.19" gradientTransform="matrix(0, -1, -1, 0, 938.75, 1115.92)" xlink:href="#linear-gradient"/><linearGradient id="linear-gradient-21" x1="1114.04" y1="9.11" x2="1114.04" y2="-6.23" gradientTransform="matrix(0, -1, -1, 0, 948.2, 1115.92)" xlink:href="#linear-gradient"/></defs><title>AIM-LOL-OVER-280120v4</title><path class="cls-1" d="M1079.81,0s-8,3.36-8,11.59c0,4.64,0,28.87,0,28.87-21.69-.91-34,10.89-35.26,20.93h-6.32s5-25,35.7-27.64l.22-30H965.66V0Z"/><path class="cls-2" d="M1343.31,1.06l126.52.05-72.56,59.06-74.88,0s6.5-16.6,21.22-19.25Z"/><path class="cls-3" d="M1036.25,60.39l286.07-.14c6.12-16.77,21.29-19.29,21.29-19.29L1343.66,1,1073,1.08"/><path class="cls-4" d="M1051.43,51.81l263.67-.05a32.5,32.5,0,0,1,18.74-18.09l0-24.86-263-.07"/><g class="cls-5"><polygon class="cls-1" points="613.17 900.26 701.58 900.02 789.98 899.93 966.79 899.76 1143.59 899.93 1232 900.02 1320.4 900.26 1232 900.51 1143.59 900.6 966.79 900.76 789.98 900.6 701.58 900.51 613.17 900.26"/></g><g class="cls-5"><polygon class="cls-1" points="613.82 943.19 702.12 942.95 790.41 942.86 967 942.69 1143.59 942.86 1231.89 942.95 1320.18 943.19 1231.89 943.44 1143.59 943.52 967 943.69 790.41 943.52 702.12 943.43 613.82 943.19"/></g><g class="cls-5"><polygon class="cls-1" points="613.94 986.69 702.4 986.45 790.85 986.36 967.77 986.2 1144.68 986.36 1233.14 986.45 1321.6 986.69 1233.14 986.94 1144.68 987.03 967.77 987.19 790.85 987.03 702.4 986.94 613.94 986.69"/></g><g class="cls-5"><polygon class="cls-1" points="614.48 1030.28 702.86 1030.03 791.23 1029.94 967.99 1029.78 1144.74 1029.94 1233.12 1030.03 1321.49 1030.28 1233.12 1030.52 1144.74 1030.61 967.99 1030.78 791.23 1030.61 702.86 1030.52 614.48 1030.28"/></g><path class="cls-1" d="M1907.22,791.89l.08,274.12H1633.48l-.22-255.79s13.66-1,20.94-18l253-.3m1.29-1.29h-1.29l-253,.3h-.85l-.33.78c-6.85,16-19.32,17.21-19.85,17.26L1632,809v1.19l.22,255.79v1.29h276.4V1066l-.08-274.12V790.6Z"/><path class="cls-1" d="M1635,784.45h10.18s-2.26,17.27-22.93,17.33V797.2c.25,0,12.47-.81,16.39-10.25h-5.3"/><polygon class="cls-1" points="1622.22 797.2 1618.42 797.2 1618.47 1079.98 1622.47 1079.98 1622.22 797.2"/><path class="cls-6" d="M1634.34,784.46h5.49a6.1,6.1,0,0,1-1.24,2.51l-5.83,0Z"/><path class="cls-1" d="M1633.54,777.74c-2.63,10.41-10.54,9.76-10.54,9.76l0,9.77,3.82-.38v-4.55c3.69-1.08,7.49-5.12,9.76-10.62h281.23l0,295.41L1620,1077l-.25,3H1920l0-302.26Z"/><path class="cls-7" d="M1623,797.11v-3.67a10.49,10.49,0,0,0,3.81-1.1v4A27.46,27.46,0,0,1,1623,797.11Z"/><path class="cls-1" d="M1617.72,1050.52V1078H1591.3v-27.51h26.42m2-2h-30.34V1080h30.34v-31.45Z"/><path class="cls-1" d="M1604.44,1055.07l2.6,2.23.25.21.33,0,3.41.26.27,3.42,0,.32.21.25,2.23,2.6-2.23,2.6-.21.25,0,.32L1611,1071l-3.41.26-.33,0-.25.21-2.6,2.23-2.6-2.23-.24-.21-.33,0-3.42-.26-.26-3.42,0-.32-.22-.25-2.23-2.6,2.23-2.6.22-.25,0-.32.26-3.42,3.42-.26.33,0,.24-.21,2.6-2.23m0-1.32-3.25,2.79-4.27.33-.33,4.27-2.78,3.25,2.78,3.25.33,4.27,4.27.33,3.25,2.79,3.25-2.79,4.27-.33.33-4.27,2.79-3.25-2.79-3.25-.33-4.27-4.27-.33-3.25-2.79Z"/><polygon class="cls-1" points="1618.51 1073.53 1611.63 1079.98 1618.73 1079.98 1618.51 1073.53"/><polygon class="cls-8" points="1608.48 1064.39 1606.65 1066.48 1604.57 1068.3 1602.48 1066.48 1600.65 1064.39 1602.48 1062.3 1604.57 1060.47 1606.65 1062.3 1608.48 1064.39"/><polygon class="cls-9" points="1608.48 1064.39 1606.65 1066.48 1604.57 1068.3 1602.48 1066.48 1600.65 1064.39 1602.48 1062.3 1604.57 1060.47 1606.65 1062.3 1608.48 1064.39"/><polygon class="cls-1" points="604.48 860.92 600.76 860.98 600.79 1080.12 604.45 1080.12 604.48 860.92"/><path class="cls-1" d="M602.48,861s12,.47,15-6.73h-4.85L614.2,852H624s-1.68,12.57-19.71,14.32"/><path class="cls-10" d="M614.33,852h4.46a8.66,8.66,0,0,1-1.37,2.21l-4.62,0Z"/><path class="cls-1" d="M612.18,846.7c-.7,7.86-8.44,7.55-8.44,7.55l0,6.92,4.8-.4,0-2.89c3.3-1.62,5.63-2.3,7.71-7.32l349.87,0,0,226.5-363.77,0-.23,3.06,366.21-.14-.09-233.26Z"/><path class="cls-11" d="M603.71,860.93V858.6a10.78,10.78,0,0,0,4.77-.72v2.47A16.9,16.9,0,0,1,603.71,860.93Z"/><path class="cls-1" d="M600.82,1067.46s-2,8.82-9.46,12.57h11.42v-12.65Z"/><polygon class="cls-1" points="1329.62 861.07 1333.35 861.12 1333.31 1080.02 1329.66 1080.02 1329.62 861.07"/><path class="cls-1" d="M1331,861s-12,.46-15-6.73h4.85l-1.58-2.18h-9.81s2.23,12.58,20.26,14.34"/><path class="cls-12" d="M1319.18,852.11h-4.5a8.33,8.33,0,0,0,1.36,2.2h4.67Z"/><path class="cls-1" d="M965.41,846.74l355.92,0c.7,7.87,8.44,7.56,8.44,7.56l0,6.92-4.8-.4,0-2.89c-3.3-1.63-5.63-2.3-7.71-7.33l-349.87,0"/><polyline class="cls-1" points="967.51 1077.09 1331.28 1077.14 1331.47 1080.02 965.34 1080.01"/><path class="cls-13" d="M1329.8,861v-2.28A10.85,10.85,0,0,1,1325,858v2.43A17.28,17.28,0,0,0,1329.8,861Z"/><path class="cls-1" d="M1332.69,1067.53s2,8.82,9.46,12.57h-11.42v-12.65Z"/><path class="cls-14" d="M305.93,797.18H302l-.63,0v0h0l0-9.62s-7.91.65-10.54-9.75H0L0,1080H305.87Z"/><path class="cls-1" d="M11.78,792.25l257.37.29c7.27,17,20.94,18,20.94,18l-.23,255.78H11.7l.08-274.11M10.49,791v1.29l-.08,274.12v1.29H291.15v-1.29l.23-255.78v-1.2l-1.2-.09c-.52,0-13-1.23-19.84-17.26l-.34-.78h-.85L11.78,791Z"/><path class="cls-1" d="M292.26,784.81H280.57s3.14,17.26,23.8,17.32l0-5c-.25,0-13.37-.44-17.29-9.87h6.81"/><polygon class="cls-1" points="303.44 797.18 307.53 797.16 307.48 1080.01 303.48 1080.01 303.44 797.18"/><path class="cls-15" d="M292.25,784.8l-6.46,0a7.71,7.71,0,0,0,1.38,2.49h6.63Z"/><path class="cls-1" d="M290.82,777.76c2.63,10.41,10.54,9.76,10.54,9.76l0,9.78-3.83-.39v-5.23c-3.7-1.08-7.5-4.44-9.77-9.93l-285.57,0,0,295.41,302.05-.13.25,3H0L0,777.76Z"/><path class="cls-16" d="M301.39,796.83v-3.55a14.19,14.19,0,0,1-3.82-.91l0,3.54A21.36,21.36,0,0,0,301.39,796.83Z"/><path class="cls-1" d="M306.82,1067.09s2,8.81,9.47,12.57H304.87V1067Z"/><path class="cls-1" d="M76.63,174.73c.17,8.54.27,17.08.39,25.62s.18,17.08.25,25.63v.63h-.65l-18.82.15L39,226.86,1.34,227h-1v-1c0-12.13,0-24.25.06-36.37l0-18.18q0-9.09.11-18.18v-.78h.76l32.88.28c11,.16,21.92.26,32.88.49-11,.22-21.92.32-32.88.48L1.34,154l.77-.76q.09,9.09.1,18.18l0,18.18c0,12.12.1,24.24.06,36.37l-1-1L39,225.1l18.82.08,18.82.15L76,226c.08-8.55.12-17.09.26-25.63S76.46,183.27,76.63,174.73Z"/><path class="cls-1" d="M76.63,174.73c.17,8.54.27,17.08.39,25.62s.18,17.08.25,25.63v.63h-.65l-18.82.15L39,226.86,1.34,227h-1v-1c0-12.13,0-24.25.06-36.37l0-18.18q0-9.09.11-18.18v-.78h.76l32.88.28c11,.16,21.92.26,32.88.49-11,.22-21.92.32-32.88.48L1.34,154l.77-.76q.09,9.09.1,18.18l0,18.18c0,12.12.1,24.24.06,36.37l-1-1L39,225.1l18.82.08,18.82.15L76,226c.08-8.55.12-17.09.26-25.63S76.46,183.27,76.63,174.73Z"/><path d="M72.33,154a9.58,9.58,0,1,1-9.57,9.58A9.59,9.59,0,0,1,72.33,154m0-2a11.58,11.58,0,1,0,11.58,11.58A11.57,11.57,0,0,0,72.33,152Z"/><path class="cls-1" d="M72.33,152a11.58,11.58,0,1,1-11.57,11.58A11.57,11.57,0,0,1,72.33,152m0-1a12.58,12.58,0,1,0,12.58,12.58A12.59,12.59,0,0,0,72.33,151Z"/><polyline class="cls-9" points="61.87 157.26 29.7 157.26 29.7 200.42 72.46 200.42 72.46 175.7"/><path class="cls-1" d="M76.63,277.69c.17,8.54.27,17.08.39,25.62s.18,17.09.25,25.63v.63h-.65l-18.82.15L39,329.82l-37.65.1h-1v-1c0-12.12,0-24.25.06-36.37l0-18.18q0-9.09.11-18.18v-.77h.76l32.88.28c11,.16,21.92.26,32.88.49-11,.22-21.92.32-32.88.48L1.34,257l.77-.76q.09,9.09.1,18.18l0,18.18c0,12.12.1,24.25.06,36.37l-1-1,37.65.11,18.82.08,18.82.16-.64.64c.08-8.54.12-17.09.26-25.63S76.46,286.23,76.63,277.69Z"/><path class="cls-1" d="M76.63,277.69c.17,8.54.27,17.08.39,25.62s.18,17.09.25,25.63v.63h-.65l-18.82.15L39,329.82l-37.65.1h-1v-1c0-12.12,0-24.25.06-36.37l0-18.18q0-9.09.11-18.18v-.77h.76l32.88.28c11,.16,21.92.26,32.88.49-11,.22-21.92.32-32.88.48L1.34,257l.77-.76q.09,9.09.1,18.18l0,18.18c0,12.12.1,24.25.06,36.37l-1-1,37.65.11,18.82.08,18.82.16-.64.64c.08-8.54.12-17.09.26-25.63S76.46,286.23,76.63,277.69Z"/><path d="M72.33,257a9.58,9.58,0,1,1-9.57,9.58A9.59,9.59,0,0,1,72.33,257m0-2a11.58,11.58,0,1,0,11.58,11.58A11.57,11.57,0,0,0,72.33,255Z"/><path class="cls-1" d="M72.33,255a11.58,11.58,0,1,1-11.57,11.58A11.57,11.57,0,0,1,72.33,255m0-1a12.58,12.58,0,1,0,12.58,12.58A12.59,12.59,0,0,0,72.33,254Z"/><polyline class="cls-9" points="61.87 260.22 29.7 260.22 29.7 303.38 72.46 303.38 72.46 278.66"/><path class="cls-17" d="M587.27,1.08l-126.53,0L533.3,60.18l75.26,0s-5.63-15.74-21.24-18.49Z"/><path class="cls-1" d="M76.63,380.65c.17,8.54.27,17.08.39,25.63s.18,17.08.25,25.62v.63h-.65l-18.82.16L39,432.78l-37.65.1h-1v-1c0-12.12,0-24.25.06-36.37l0-18.18q0-9.09.11-18.18v-.77h.76l32.88.28c11,.17,21.92.26,32.88.49-11,.22-21.92.32-32.88.48l-32.88.28.77-.76q.09,9.09.1,18.18l0,18.18c0,12.12.1,24.25.06,36.37l-1-1L39,431l18.82.08,18.82.16-.64.64c.08-8.54.12-17.08.26-25.62S76.46,389.19,76.63,380.65Z"/><path class="cls-1" d="M76.63,380.65c.17,8.54.27,17.08.39,25.63s.18,17.08.25,25.62v.63h-.65l-18.82.16L39,432.78l-37.65.1h-1v-1c0-12.12,0-24.25.06-36.37l0-18.18q0-9.09.11-18.18v-.77h.76l32.88.28c11,.17,21.92.26,32.88.49-11,.22-21.92.32-32.88.48l-32.88.28.77-.76q.09,9.09.1,18.18l0,18.18c0,12.12.1,24.25.06,36.37l-1-1L39,431l18.82.08,18.82.16-.64.64c.08-8.54.12-17.08.26-25.62S76.46,389.19,76.63,380.65Z"/><path d="M72.33,359.92a9.58,9.58,0,1,1-9.57,9.58,9.59,9.59,0,0,1,9.57-9.58m0-2A11.58,11.58,0,1,0,83.91,369.5a11.58,11.58,0,0,0-11.58-11.58Z"/><path class="cls-1" d="M72.33,357.92A11.58,11.58,0,1,1,60.76,369.5a11.58,11.58,0,0,1,11.57-11.58m0-1A12.58,12.58,0,1,0,84.91,369.5a12.59,12.59,0,0,0-12.58-12.58Z"/><polyline class="cls-9" points="61.87 363.18 29.7 363.18 29.7 406.34 72.46 406.34 72.46 381.62"/><path class="cls-1" d="M76.63,483.61c.17,8.54.27,17.09.39,25.63s.18,17.08.25,25.62v.64h-.65l-18.82.16L39,535.74l-37.65.1h-1v-1c0-12.12,0-24.24.06-36.37l0-18.18q0-9.09.11-18.18v-.77h.76l32.88.28c11,.17,21.92.26,32.88.49-11,.22-21.92.32-32.88.49l-32.88.27.77-.76q.09,9.09.1,18.18l0,18.18c0,12.13.1,24.25.06,36.37l-1-1L39,534l18.82.08,18.82.16-.64.64c.08-8.54.12-17.08.26-25.62S76.46,492.15,76.63,483.61Z"/><path class="cls-1" d="M76.63,483.61c.17,8.54.27,17.09.39,25.63s.18,17.08.25,25.62v.64h-.65l-18.82.16L39,535.74l-37.65.1h-1v-1c0-12.12,0-24.24.06-36.37l0-18.18q0-9.09.11-18.18v-.77h.76l32.88.28c11,.17,21.92.26,32.88.49-11,.22-21.92.32-32.88.49l-32.88.27.77-.76q.09,9.09.1,18.18l0,18.18c0,12.13.1,24.25.06,36.37l-1-1L39,534l18.82.08,18.82.16-.64.64c.08-8.54.12-17.08.26-25.62S76.46,492.15,76.63,483.61Z"/><path d="M72.33,462.88a9.58,9.58,0,1,1-9.57,9.58,9.59,9.59,0,0,1,9.57-9.58m0-2a11.58,11.58,0,1,0,11.58,11.58,11.58,11.58,0,0,0-11.58-11.58Z"/><path class="cls-1" d="M72.33,460.88a11.58,11.58,0,1,1-11.57,11.58,11.58,11.58,0,0,1,11.57-11.58m0-1a12.58,12.58,0,1,0,12.58,12.58,12.59,12.59,0,0,0-12.58-12.58Z"/><polyline class="cls-9" points="61.87 466.14 29.7 466.14 29.7 509.3 72.46 509.3 72.46 484.58"/><path class="cls-1" d="M76.63,586.57c.17,8.55.27,17.09.39,25.63s.18,17.08.25,25.62v.64h-.65l-18.82.16L39,638.7l-37.65.1h-1v-1c0-12.12,0-24.24.06-36.37l0-18.18q0-9.09.11-18.18v-.77h.76l32.88.28c11,.17,21.92.26,32.88.49-11,.22-21.92.32-32.88.49l-32.88.27.77-.76q.09,9.09.1,18.18l0,18.18c0,12.13.1,24.25.06,36.37l-1-1,37.65.1,18.82.08,18.82.16-.64.64c.08-8.54.12-17.08.26-25.62S76.46,595.12,76.63,586.57Z"/><path class="cls-1" d="M76.63,586.57c.17,8.55.27,17.09.39,25.63s.18,17.08.25,25.62v.64h-.65l-18.82.16L39,638.7l-37.65.1h-1v-1c0-12.12,0-24.24.06-36.37l0-18.18q0-9.09.11-18.18v-.77h.76l32.88.28c11,.17,21.92.26,32.88.49-11,.22-21.92.32-32.88.49l-32.88.27.77-.76q.09,9.09.1,18.18l0,18.18c0,12.13.1,24.25.06,36.37l-1-1,37.65.1,18.82.08,18.82.16-.64.64c.08-8.54.12-17.08.26-25.62S76.46,595.12,76.63,586.57Z"/><path d="M72.33,565.84a9.58,9.58,0,1,1-9.57,9.58,9.59,9.59,0,0,1,9.57-9.58m0-2a11.58,11.58,0,1,0,11.58,11.58,11.58,11.58,0,0,0-11.58-11.58Z"/><path class="cls-1" d="M72.33,563.84a11.58,11.58,0,1,1-11.57,11.58,11.58,11.58,0,0,1,11.57-11.58m0-1a12.58,12.58,0,1,0,12.58,12.58,12.59,12.59,0,0,0-12.58-12.58Z"/><polyline class="cls-9" points="61.87 569.11 29.7 569.11 29.7 612.26 72.46 612.26 72.46 587.54"/><path class="cls-1" d="M1842.59,174.73c.17,8.54.26,17.08.38,25.62s.18,17.08.26,25.63l-.64-.65,18.82-.15,18.82-.08,37.65-.11-1,1c0-12.13,0-24.25.07-36.37l0-18.18q0-9.09.1-18.18l.77.76-32.88-.28c-11-.16-21.92-.26-32.88-.48,11-.23,21.92-.33,32.88-.49l32.88-.28h.75v.78q.09,9.09.1,18.18l0,18.18c0,12.12.11,24.24.07,36.37v1h-1l-37.65-.1-18.82-.09-18.82-.15h-.65V226c.08-8.55.12-17.09.26-25.63S1842.41,183.27,1842.59,174.73Z"/><path class="cls-1" d="M1842.59,174.73c.17,8.54.26,17.08.38,25.62s.18,17.08.26,25.63l-.64-.65,18.82-.15,18.82-.08,37.65-.11-1,1c0-12.13,0-24.25.07-36.37l0-18.18q0-9.09.1-18.18l.77.76-32.88-.28c-11-.16-21.92-.26-32.88-.48,11-.23,21.92-.33,32.88-.49l32.88-.28h.75v.78q.09,9.09.1,18.18l0,18.18c0,12.12.11,24.24.07,36.37v1h-1l-37.65-.1-18.82-.09-18.82-.15h-.65V226c.08-8.55.12-17.09.26-25.63S1842.41,183.27,1842.59,174.73Z"/><path d="M1846.89,154a9.58,9.58,0,1,1-9.58,9.58,9.59,9.59,0,0,1,9.58-9.58m0-2a11.58,11.58,0,1,0,11.57,11.58A11.57,11.57,0,0,0,1846.89,152Z"/><path class="cls-1" d="M1846.89,152a11.58,11.58,0,1,1-11.58,11.58A11.57,11.57,0,0,1,1846.89,152m0-1a12.58,12.58,0,1,0,12.57,12.58A12.59,12.59,0,0,0,1846.89,151Z"/><polyline class="cls-9" points="1857.35 157.26 1889.52 157.26 1889.52 200.42 1846.76 200.42 1846.76 175.7"/><path class="cls-1" d="M1842.59,277.69c.17,8.54.26,17.08.38,25.62s.18,17.09.26,25.63l-.64-.64,18.82-.16,18.82-.08,37.65-.11-1,1c0-12.12,0-24.25.07-36.37l0-18.18q0-9.09.1-18.18l.77.76-32.88-.28c-11-.16-21.92-.26-32.88-.48,11-.23,21.92-.33,32.88-.49l32.88-.28h.75v.77q.09,9.09.1,18.18l0,18.18c0,12.12.11,24.25.07,36.37v1h-1l-37.65-.1-18.82-.09-18.82-.15h-.65v-.63c.08-8.54.12-17.09.26-25.63S1842.41,286.23,1842.59,277.69Z"/><path class="cls-1" d="M1842.59,277.69c.17,8.54.26,17.08.38,25.62s.18,17.09.26,25.63l-.64-.64,18.82-.16,18.82-.08,37.65-.11-1,1c0-12.12,0-24.25.07-36.37l0-18.18q0-9.09.1-18.18l.77.76-32.88-.28c-11-.16-21.92-.26-32.88-.48,11-.23,21.92-.33,32.88-.49l32.88-.28h.75v.77q.09,9.09.1,18.18l0,18.18c0,12.12.11,24.25.07,36.37v1h-1l-37.65-.1-18.82-.09-18.82-.15h-.65v-.63c.08-8.54.12-17.09.26-25.63S1842.41,286.23,1842.59,277.69Z"/><path d="M1846.89,257a9.58,9.58,0,1,1-9.58,9.58,9.59,9.59,0,0,1,9.58-9.58m0-2a11.58,11.58,0,1,0,11.57,11.58A11.57,11.57,0,0,0,1846.89,255Z"/><path class="cls-1" d="M1846.89,255a11.58,11.58,0,1,1-11.58,11.58A11.57,11.57,0,0,1,1846.89,255m0-1a12.58,12.58,0,1,0,12.57,12.58A12.59,12.59,0,0,0,1846.89,254Z"/><polyline class="cls-9" points="1857.35 260.22 1889.52 260.22 1889.52 303.38 1846.76 303.38 1846.76 278.66"/><path class="cls-1" d="M1842.59,380.65c.17,8.54.26,17.08.38,25.63s.18,17.08.26,25.62l-.64-.64,18.82-.16,18.82-.08,37.65-.1-1,1c0-12.12,0-24.25.07-36.37l0-18.18q0-9.09.1-18.18l.77.76-32.88-.28c-11-.16-21.92-.26-32.88-.48,11-.23,21.92-.32,32.88-.49l32.88-.28h.75v.77q.09,9.09.1,18.18l0,18.18c0,12.12.11,24.25.07,36.37v1h-1l-37.65-.1-18.82-.08-18.82-.16h-.65v-.63c.08-8.54.12-17.08.26-25.62S1842.41,389.19,1842.59,380.65Z"/><path class="cls-1" d="M1842.59,380.65c.17,8.54.26,17.08.38,25.63s.18,17.08.26,25.62l-.64-.64,18.82-.16,18.82-.08,37.65-.1-1,1c0-12.12,0-24.25.07-36.37l0-18.18q0-9.09.1-18.18l.77.76-32.88-.28c-11-.16-21.92-.26-32.88-.48,11-.23,21.92-.32,32.88-.49l32.88-.28h.75v.77q.09,9.09.1,18.18l0,18.18c0,12.12.11,24.25.07,36.37v1h-1l-37.65-.1-18.82-.08-18.82-.16h-.65v-.63c.08-8.54.12-17.08.26-25.62S1842.41,389.19,1842.59,380.65Z"/><path d="M1846.89,359.92a9.58,9.58,0,1,1-9.58,9.58,9.59,9.59,0,0,1,9.58-9.58m0-2a11.58,11.58,0,1,0,11.57,11.58,11.58,11.58,0,0,0-11.57-11.58Z"/><path class="cls-1" d="M1846.89,357.92a11.58,11.58,0,1,1-11.58,11.58,11.58,11.58,0,0,1,11.58-11.58m0-1a12.58,12.58,0,1,0,12.57,12.58,12.59,12.59,0,0,0-12.57-12.58Z"/><polyline class="cls-9" points="1857.35 363.18 1889.52 363.18 1889.52 406.34 1846.76 406.34 1846.76 381.62"/><path class="cls-1" d="M1842.59,483.61c.17,8.54.26,17.09.38,25.63s.18,17.08.26,25.62l-.64-.64,18.82-.16,18.82-.08,37.65-.1-1,1c0-12.12,0-24.24.07-36.37l0-18.18q0-9.09.1-18.18l.77.76-32.88-.27c-11-.17-21.92-.27-32.88-.49,11-.23,21.92-.32,32.88-.49l32.88-.28h.75v.77q.09,9.09.1,18.18l0,18.18c0,12.13.11,24.25.07,36.37v1h-1l-37.65-.1-18.82-.08-18.82-.16h-.65v-.64c.08-8.54.12-17.08.26-25.62S1842.41,492.15,1842.59,483.61Z"/><path class="cls-1" d="M1842.59,483.61c.17,8.54.26,17.09.38,25.63s.18,17.08.26,25.62l-.64-.64,18.82-.16,18.82-.08,37.65-.1-1,1c0-12.12,0-24.24.07-36.37l0-18.18q0-9.09.1-18.18l.77.76-32.88-.27c-11-.17-21.92-.27-32.88-.49,11-.23,21.92-.32,32.88-.49l32.88-.28h.75v.77q.09,9.09.1,18.18l0,18.18c0,12.13.11,24.25.07,36.37v1h-1l-37.65-.1-18.82-.08-18.82-.16h-.65v-.64c.08-8.54.12-17.08.26-25.62S1842.41,492.15,1842.59,483.61Z"/><path d="M1846.89,462.88a9.58,9.58,0,1,1-9.58,9.58,9.59,9.59,0,0,1,9.58-9.58m0-2a11.58,11.58,0,1,0,11.57,11.58,11.58,11.58,0,0,0-11.57-11.58Z"/><path class="cls-1" d="M1846.89,460.88a11.58,11.58,0,1,1-11.58,11.58,11.58,11.58,0,0,1,11.58-11.58m0-1a12.58,12.58,0,1,0,12.57,12.58,12.6,12.6,0,0,0-12.57-12.58Z"/><polyline class="cls-9" points="1857.35 466.14 1889.52 466.14 1889.52 509.3 1846.76 509.3 1846.76 484.58"/><path class="cls-1" d="M1842.59,586.57c.17,8.55.26,17.09.38,25.63s.18,17.08.26,25.62l-.64-.64,18.82-.16,18.82-.08,37.65-.1-1,1c0-12.12,0-24.24.07-36.37l0-18.18q0-9.09.1-18.18l.77.76-32.88-.27c-11-.17-21.92-.27-32.88-.49,11-.23,21.92-.32,32.88-.49l32.88-.28h.75v.77q.09,9.09.1,18.18l0,18.18c0,12.13.11,24.25.07,36.37v1h-1l-37.65-.1-18.82-.08-18.82-.16h-.65v-.64c.08-8.54.12-17.08.26-25.62S1842.41,595.12,1842.59,586.57Z"/><path class="cls-1" d="M1842.59,586.57c.17,8.55.26,17.09.38,25.63s.18,17.08.26,25.62l-.64-.64,18.82-.16,18.82-.08,37.65-.1-1,1c0-12.12,0-24.24.07-36.37l0-18.18q0-9.09.1-18.18l.77.76-32.88-.27c-11-.17-21.92-.27-32.88-.49,11-.23,21.92-.32,32.88-.49l32.88-.28h.75v.77q.09,9.09.1,18.18l0,18.18c0,12.13.11,24.25.07,36.37v1h-1l-37.65-.1-18.82-.08-18.82-.16h-.65v-.64c.08-8.54.12-17.08.26-25.62S1842.41,595.12,1842.59,586.57Z"/><path d="M1846.89,565.84a9.58,9.58,0,1,1-9.58,9.58,9.59,9.59,0,0,1,9.58-9.58m0-2a11.58,11.58,0,1,0,11.57,11.58,11.58,11.58,0,0,0-11.57-11.58Z"/><path class="cls-1" d="M1846.89,563.84a11.58,11.58,0,1,1-11.58,11.58,11.58,11.58,0,0,1,11.58-11.58m0-1a12.58,12.58,0,1,0,12.57,12.58,12.6,12.6,0,0,0-12.57-12.58Z"/><polyline class="cls-9" points="1857.35 569.11 1889.52 569.11 1889.52 612.26 1846.76 612.26 1846.76 587.54"/><path class="cls-1" d="M1064.34,39.68v9.41a43.48,43.48,0,0,0-7.1,2.45c-6,2.66-14,8.52-15.52,21.18l-74.63,0V67.49l70.54,0c5.55-19.73,22.49-22.36,22.49-22.36l.12-9.1Z"/><path class="cls-18" d="M1060.08,41.28a28.29,28.29,0,0,1,4.26-.61v8.42l-4.22-3.94Z"/><path class="cls-19" d="M1045.58,61.39l1.39-2h8.33l-1.92,2Z"/><path class="cls-20" d="M1039.92,61.4a14.5,14.5,0,0,1,1.07-2h-4.09l-1.72,2Z"/><path class="cls-21" d="M1055.66,52.28s1.29-.67,2.12-1l8.33,0-.93,1Z"/><polygon class="cls-22" points="956.34 55.45 949.56 1.12 985.58 1.12 978.8 55.43 967.12 62.67 956.34 55.45"/><path class="cls-1" d="M984.32,2.23l-6.56,52.53-10.62,6.58-9.76-6.53L950.82,2.23h33.5M986.84,0H948.3l7,56.09L967.09,64l12.75-7.91,7-56.09Z"/><path class="cls-23" d="M978.15,3.76S980.53.81,981.07,0h12.37L990,3.75Z"/><polygon class="cls-1" points="966.8 16.11 950.69 0 982.91 0 966.8 16.11"/><polygon class="cls-24" points="966.8 11.74 958.94 3.88 974.66 3.88 966.8 11.74"/><path class="cls-25" d="M1072,9.22a8.63,8.63,0,0,1,.24-1l8.41,0-.93,1Z"/><path class="cls-1" d="M851.77,0s8,3.35,8,11.59c0,4.64,0,28.87,0,28.87,21.69-.91,34,10.89,35.26,20.92h6.32s-5-25-35.71-27.63l-.22-30,100.45,0V0Z"/><path class="cls-3" d="M895.33,60.4,609,60.27a28,28,0,0,0-21.65-18.54l-.05-40.64H858.61"/><path class="cls-4" d="M880.14,51.82l-263.67,0a32.46,32.46,0,0,0-18.73-18.1V8.82l263-.08"/><path class="cls-1" d="M867.24,39.68V49.1a42.53,42.53,0,0,1,7.09,2.44c6,2.66,14,8.53,15.52,21.18l77.62,0V67.49l-73.52,0c-5.55-19.73-22.5-22.35-22.5-22.35l-.12-9.1Z"/><path class="cls-26" d="M871.49,41.28a28,28,0,0,0-4.26-.61V49.1l4.21-3.94Z"/><path class="cls-27" d="M886,61.39l-1.39-2h-8.34l1.92,2Z"/><path class="cls-28" d="M891.66,61.41a13.9,13.9,0,0,0-1.07-2h4.09l1.72,2Z"/><path class="cls-29" d="M875.91,52.29a22,22,0,0,0-2.12-1h-8.32l.93,1Z"/><path class="cls-30" d="M859.56,9.22a9.69,9.69,0,0,0-.23-1l-8.41,0,.93.95Z"/><polygon class="cls-31" points="954.43 3.76 950.69 0 939.09 0.01 942.6 3.76 954.43 3.76"/><rect class="cls-9" x="1762.07" y="27.56" width="130.05" height="55.4"/><rect class="cls-32" x="26.91" y="27.33" width="129.99" height="55.4"/><polygon class="cls-1" points="973.03 30.69 973.03 21.2 961.15 21.2 961.15 30.48 970.65 40.03 970.65 45.91 963.53 45.91 963.53 38.82 961.15 38.82 961.15 48.29 973.02 48.29 973.02 39.01 963.52 29.5 963.52 23.58 970.6 23.58 970.6 30.69 973.03 30.69"/><polygon class="cls-1" points="965.88 25.96 965.88 28.29 968.24 30.65 968.24 25.96 965.88 25.96"/><polygon class="cls-1" points="975.62 35.97 973.3 35.97 970.86 33.53 975.62 33.53 975.62 35.97"/><polygon class="cls-1" points="958.56 33.53 960.88 33.53 963.33 35.97 958.56 35.97 958.56 33.53"/><polygon class="cls-1" points="968.27 43.55 968.27 41.23 965.91 38.86 965.91 43.55 968.27 43.55"/><path class="cls-1" d="M29.7,929.3c10.27-.22,20.54-.32,30.81-.49l30.81-.27c20.54-.17,41.08-.15,61.62-.24,20.54.08,41.08.07,61.62.23l30.81.28c10.27.17,20.54.26,30.81.49-10.27.23-20.54.33-30.81.49l-30.81.28c-20.54.16-41.08.15-61.62.23-20.54-.08-41.08-.07-61.62-.23l-30.81-.28C50.24,929.62,40,929.53,29.7,929.3Z"/></svg>