<?xml version="1.0" encoding="utf-8"?>
<!-- Generator: Adobe Illustrator 25.1.0, SVG Export Plug-In . SVG Version: 6.00 Build 0)  -->
<svg version="1.1" id="Layer_1" xmlns="http://www.w3.org/2000/svg" xmlns:xlink="http://www.w3.org/1999/xlink" x="0px" y="0px"
	 viewBox="0 0 1920 1080" style="enable-background:new 0 0 1920 1080;" xml:space="preserve">
<style type="text/css">
	.st0{fill:#FFFFFF;}
	.st1{fill-opacity:0.47;stroke:#FFFFFF;stroke-width:2;stroke-miterlimit:10;}
	.st2{fill:none;stroke:#FFFFFF;stroke-width:2;stroke-miterlimit:10;}
	.st3{fill:none;stroke:#FFFFFF;stroke-width:0.95;stroke-miterlimit:10;}
	.st4{opacity:0.85;}
	.st5{fill:url(#SVGID_1_);}
	.st6{fill:url(#SVGID_2_);}
	.st7{fill:#1B3531;}
	.st8{fill:none;stroke:#FFFFFF;stroke-miterlimit:10;}
	.st9{fill:url(#SVGID_3_);}
	.st10{fill:url(#SVGID_4_);}
	.st11{fill:url(#SVGID_5_);}
	.st12{fill:url(#SVGID_6_);}
	.st13{fill:#081010;}
	.st14{fill:url(#SVGID_7_);}
	.st15{fill:url(#SVGID_8_);}
	.st16{fill-opacity:0.47;stroke:#FFFFFF;stroke-width:2.08;stroke-miterlimit:10;}
	.st17{fill:url(#SVGID_9_);}
	.st18{fill:url(#SVGID_10_);}
	.st19{fill:url(#SVGID_11_);}
	.st20{fill:url(#SVGID_12_);}
	.st21{fill:url(#SVGID_13_);}
	.st22{fill:url(#SVGID_14_);}
	.st23{fill:url(#SVGID_15_);}
	.st24{fill:url(#SVGID_16_);}
	.st25{fill:url(#SVGID_17_);}
	.st26{fill:url(#SVGID_18_);}
	.st27{opacity:0.51;fill:url(#SVGID_19_);enable-background:new    ;}
	.st28{fill:url(#SVGID_20_);}
</style>
<path class="st0" d="M1079.8,0c0,0-8,3.4-8,11.6c0,4.6,0,28.9,0,28.9c-21.7-0.9-34,10.9-35.3,20.9h-6.3c0,0,5-25,35.7-27.6l0.2-30
	H965.7V0H1079.8z"/>
<path class="st1" d="M1343.3,1.1l126.5,0l-72.6,59.1h-74.9c0,0,6.5-16.6,21.2-19.2L1343.3,1.1z"/>
<path class="st2" d="M1036.2,60.4l286.1-0.1c6.1-16.8,21.3-19.3,21.3-19.3l0-40L1073,1.1"/>
<path class="st3" d="M1051.4,51.8l263.7,0c3.5-8.4,10.2-14.9,18.7-18.1V8.8l-263-0.1"/>
<g class="st4">
	<polygon class="st0" points="613.2,900.3 701.6,900 790,899.9 966.8,899.8 1143.6,899.9 1232,900 1320.4,900.3 1232,900.5 
		1143.6,900.6 966.8,900.8 790,900.6 701.6,900.5 	"/>
</g>
<g class="st4">
	<polygon class="st0" points="613.8,943.2 702.1,943 790.4,942.9 967,942.7 1143.6,942.9 1231.9,943 1320.2,943.2 1231.9,943.4 
		1143.6,943.5 967,943.7 790.4,943.5 702.1,943.4 	"/>
</g>
<g class="st4">
	<polygon class="st0" points="613.9,986.7 702.4,986.5 790.8,986.4 967.8,986.2 1144.7,986.4 1233.1,986.5 1321.6,986.7 
		1233.1,986.9 1144.7,987 967.8,987.2 790.8,987 702.4,986.9 	"/>
</g>
<g class="st4">
	<polygon class="st0" points="614.5,1030.3 702.9,1030 791.2,1029.9 968,1029.8 1144.7,1029.9 1233.1,1030 1321.5,1030.3 
		1233.1,1030.5 1144.7,1030.6 968,1030.8 791.2,1030.6 702.9,1030.5 	"/>
</g>
<path class="st0" d="M1907.2,791.9l0.1,274.1h-273.8l-0.2-255.8c0,0,13.7-1,20.9-18L1907.2,791.9 M1908.5,790.6h-1.3l-253,0.3h-0.8
	l-0.3,0.8c-6.8,16-19.3,17.2-19.8,17.3l-1.2,0v1.2l0.2,255.8v1.3h276.4v-1.3l-0.1-274.1L1908.5,790.6L1908.5,790.6z"/>
<path class="st0" d="M1635,784.5h10.2c0,0-2.3,17.3-22.9,17.3v-4.6c0.2,0,12.5-0.8,16.4-10.2h-5.3"/>
<polygon class="st0" points="1622.2,797.2 1618.4,797.2 1618.5,1080 1622.5,1080 "/>
<linearGradient id="SVGID_1_" gradientUnits="userSpaceOnUse" x1="1639.83" y1="294.285" x2="1632.76" y2="294.285" gradientTransform="matrix(1 0 0 -1 0 1080)">
	<stop  offset="0.16" style="stop-color:#FFFFFF"/>
	<stop  offset="0.25" style="stop-color:#F8F8F8"/>
	<stop  offset="0.39" style="stop-color:#E5E5E5"/>
	<stop  offset="0.55" style="stop-color:#C6C6C6"/>
	<stop  offset="0.72" style="stop-color:#9A9A9A"/>
	<stop  offset="0.91" style="stop-color:#636363"/>
	<stop  offset="1" style="stop-color:#474747"/>
</linearGradient>
<path class="st5" d="M1634.3,784.5h5.5c-0.2,0.9-0.6,1.8-1.2,2.5h-5.8L1634.3,784.5z"/>
<path class="st0" d="M1633.5,777.7c-2.6,10.4-10.5,9.8-10.5,9.8v9.8l3.8-0.4v-4.5c3.7-1.1,7.5-5.1,9.8-10.6h281.2v295.4L1620,1077
	l-0.2,3H1920V777.7H1633.5z"/>
<linearGradient id="SVGID_2_" gradientUnits="userSpaceOnUse" x1="1624.905" y1="287.66" x2="1624.905" y2="282.89" gradientTransform="matrix(1 0 0 -1 0 1080)">
	<stop  offset="0.16" style="stop-color:#FFFFFF"/>
	<stop  offset="0.25" style="stop-color:#F8F8F8"/>
	<stop  offset="0.39" style="stop-color:#E5E5E5"/>
	<stop  offset="0.55" style="stop-color:#C6C6C6"/>
	<stop  offset="0.72" style="stop-color:#9A9A9A"/>
	<stop  offset="0.91" style="stop-color:#636363"/>
	<stop  offset="1" style="stop-color:#474747"/>
</linearGradient>
<path class="st6" d="M1623,797.1v-3.7c1.3-0.1,2.6-0.5,3.8-1.1v4C1625.6,796.7,1624.3,796.9,1623,797.1z"/>
<path class="st0" d="M1617.7,1050.5v27.5h-26.4v-27.5L1617.7,1050.5 M1619.7,1048.5h-30.3v31.5h30.3V1048.5L1619.7,1048.5z"/>
<path class="st0" d="M1604.4,1055.1l2.6,2.2l0.2,0.2h0.3l3.4,0.3l0.3,3.4v0.3l0.2,0.2l2.2,2.6l-2.2,2.6l-0.2,0.2v0.3l-0.3,3.5
	l-3.4,0.3h-0.3l-0.2,0.2l-2.6,2.2l-2.6-2.2l-0.2-0.2h-0.3l-3.4-0.3l-0.3-3.4v-0.3l-0.2-0.2l-2.2-2.6l2.2-2.6l0.2-0.2v-0.3l0.3-3.4
	l3.4-0.3h0.3l0.2-0.2L1604.4,1055.1 M1604.4,1053.8l-3.2,2.8l-4.3,0.3l-0.3,4.3l-2.8,3.2l2.8,3.2l0.3,4.3l4.3,0.3l3.2,2.8l3.2-2.8
	l4.3-0.3l0.3-4.3l2.8-3.2l-2.8-3.2l-0.3-4.3l-4.3-0.3L1604.4,1053.8z"/>
<polygon class="st0" points="1618.5,1073.5 1611.6,1080 1618.7,1080 "/>
<polygon class="st7" points="1608.5,1064.4 1606.7,1066.5 1604.6,1068.3 1602.5,1066.5 1600.7,1064.4 1602.5,1062.3 1604.6,1060.5 
	1606.7,1062.3 "/>
<polygon class="st8" points="1608.5,1064.4 1606.7,1066.5 1604.6,1068.3 1602.5,1066.5 1600.7,1064.4 1602.5,1062.3 1604.6,1060.5 
	1606.7,1062.3 "/>
<polygon class="st0" points="604.5,860.9 600.8,861 600.8,1080.1 604.5,1080.1 "/>
<path class="st0" d="M602.5,861c0,0,12,0.5,15-6.7h-4.8l1.6-2.3h9.8c0,0-1.7,12.6-19.7,14.3"/>
<linearGradient id="SVGID_3_" gradientUnits="userSpaceOnUse" x1="618.79" y1="226.895" x2="612.8" y2="226.895" gradientTransform="matrix(1 0 0 -1 0 1080)">
	<stop  offset="0.16" style="stop-color:#FFFFFF"/>
	<stop  offset="0.25" style="stop-color:#F8F8F8"/>
	<stop  offset="0.39" style="stop-color:#E5E5E5"/>
	<stop  offset="0.55" style="stop-color:#C6C6C6"/>
	<stop  offset="0.72" style="stop-color:#9A9A9A"/>
	<stop  offset="0.91" style="stop-color:#636363"/>
	<stop  offset="1" style="stop-color:#474747"/>
</linearGradient>
<path class="st9" d="M614.3,852h4.5c-0.3,0.8-0.8,1.5-1.4,2.2h-4.6L614.3,852z"/>
<path class="st0" d="M612.2,846.7c-0.7,7.9-8.4,7.5-8.4,7.5v6.9l4.8-0.4v-2.9c3.3-1.6,5.6-2.3,7.7-7.3h349.9v226.5H602.3l-0.2,3.1
	l366.2-0.1l-0.1-233.3L612.2,846.7z"/>
<linearGradient id="SVGID_4_" gradientUnits="userSpaceOnUse" x1="606.095" y1="222.12" x2="606.095" y2="219.07" gradientTransform="matrix(1 0 0 -1 0 1080)">
	<stop  offset="0.16" style="stop-color:#FFFFFF"/>
	<stop  offset="0.25" style="stop-color:#F8F8F8"/>
	<stop  offset="0.39" style="stop-color:#E5E5E5"/>
	<stop  offset="0.55" style="stop-color:#C6C6C6"/>
	<stop  offset="0.72" style="stop-color:#9A9A9A"/>
	<stop  offset="0.91" style="stop-color:#636363"/>
	<stop  offset="1" style="stop-color:#474747"/>
</linearGradient>
<path class="st10" d="M603.7,860.9v-2.3c1.6,0.1,3.3-0.1,4.8-0.7v2.5C606.9,860.8,605.3,861,603.7,860.9z"/>
<path class="st0" d="M600.8,1067.5c0,0-2,8.8-9.5,12.6h11.4v-12.7L600.8,1067.5z"/>
<polygon class="st0" points="1329.6,861.1 1333.3,861.1 1333.3,1080 1329.7,1080 "/>
<path class="st0" d="M1331,861c0,0-12,0.5-15-6.7h4.8l-1.6-2.2h-9.8c0,0,2.2,12.6,20.3,14.3"/>
<linearGradient id="SVGID_5_" gradientUnits="userSpaceOnUse" x1="1314.6801" y1="226.79" x2="1320.7101" y2="226.79" gradientTransform="matrix(1 0 0 -1 0 1080)">
	<stop  offset="0.16" style="stop-color:#FFFFFF"/>
	<stop  offset="0.25" style="stop-color:#F8F8F8"/>
	<stop  offset="0.39" style="stop-color:#E5E5E5"/>
	<stop  offset="0.55" style="stop-color:#C6C6C6"/>
	<stop  offset="0.72" style="stop-color:#9A9A9A"/>
	<stop  offset="0.91" style="stop-color:#636363"/>
	<stop  offset="1" style="stop-color:#474747"/>
</linearGradient>
<path class="st11" d="M1319.2,852.1h-4.5c0.3,0.8,0.8,1.5,1.4,2.2h4.7L1319.2,852.1z"/>
<path class="st0" d="M965.4,846.7h355.9c0.7,7.9,8.4,7.6,8.4,7.6v6.9l-4.8-0.4v-2.9c-3.3-1.6-5.6-2.3-7.7-7.3H967.4"/>
<polyline class="st0" points="967.5,1077.1 1331.3,1077.1 1331.5,1080 965.3,1080 "/>
<linearGradient id="SVGID_6_" gradientUnits="userSpaceOnUse" x1="1327.4" y1="222.01" x2="1327.4" y2="219" gradientTransform="matrix(1 0 0 -1 0 1080)">
	<stop  offset="0.16" style="stop-color:#FFFFFF"/>
	<stop  offset="0.25" style="stop-color:#F8F8F8"/>
	<stop  offset="0.39" style="stop-color:#E5E5E5"/>
	<stop  offset="0.55" style="stop-color:#C6C6C6"/>
	<stop  offset="0.72" style="stop-color:#9A9A9A"/>
	<stop  offset="0.91" style="stop-color:#636363"/>
	<stop  offset="1" style="stop-color:#474747"/>
</linearGradient>
<path class="st12" d="M1329.8,861v-2.3c-1.6,0.1-3.3-0.1-4.8-0.7v2.4C1326.6,860.8,1328.2,861,1329.8,861z"/>
<path class="st0" d="M1332.7,1067.5c0,0,2,8.8,9.5,12.6h-11.4v-12.7L1332.7,1067.5z"/>
<path class="st13" d="M305.9,797.2H302h-0.6l0,0l0,0v-9.6c0,0-7.9,0.7-10.5-9.8H0V1080h305.9L305.9,797.2z"/>
<path class="st0" d="M11.8,792.2l257.4,0.3c7.3,17,20.9,18,20.9,18l-0.2,255.8H11.7L11.8,792.2 M10.5,791v1.3l-0.1,274.1v1.3h280.7
	v-1.3l0.2-255.8v-1.2l-1.2-0.1c-0.5,0-13-1.2-19.8-17.3l-0.3-0.8h-0.9L11.8,791H10.5z"/>
<path class="st0" d="M292.3,784.8h-11.7c0,0,3.1,17.3,23.8,17.3v-5c-0.2,0-13.4-0.4-17.3-9.9h6.8"/>
<polygon class="st0" points="303.4,797.2 307.5,797.2 307.5,1080 303.5,1080 "/>
<linearGradient id="SVGID_7_" gradientUnits="userSpaceOnUse" x1="285.79" y1="293.955" x2="293.8" y2="293.955" gradientTransform="matrix(1 0 0 -1 0 1080)">
	<stop  offset="8.000000e-02" style="stop-color:#FFFFFF"/>
	<stop  offset="0.15" style="stop-color:#F7F7F7"/>
	<stop  offset="0.26" style="stop-color:#E1E1E1"/>
	<stop  offset="0.4" style="stop-color:#BDBDBD"/>
	<stop  offset="0.55" style="stop-color:#8B8B8B"/>
	<stop  offset="0.73" style="stop-color:#4B4B4B"/>
	<stop  offset="0.91" style="stop-color:#000000"/>
</linearGradient>
<path class="st14" d="M292.2,784.8h-6.5c0.3,0.9,0.8,1.8,1.4,2.5h6.6L292.2,784.8z"/>
<path class="st0" d="M290.8,777.8c2.6,10.4,10.5,9.8,10.5,9.8v9.8l-3.8-0.4v-5.2c-3.7-1.1-7.5-4.4-9.8-9.9H2.2v295.4l302-0.1l0.2,3
	H0V777.8H290.8z"/>
<linearGradient id="SVGID_8_" gradientUnits="userSpaceOnUse" x1="299.48" y1="287.6299" x2="299.48" y2="283.17" gradientTransform="matrix(1 0 0 -1 0 1080)">
	<stop  offset="0.16" style="stop-color:#FFFFFF"/>
	<stop  offset="0.25" style="stop-color:#F8F8F8"/>
	<stop  offset="0.39" style="stop-color:#E5E5E5"/>
	<stop  offset="0.55" style="stop-color:#C6C6C6"/>
	<stop  offset="0.72" style="stop-color:#9A9A9A"/>
	<stop  offset="0.91" style="stop-color:#636363"/>
	<stop  offset="1" style="stop-color:#474747"/>
</linearGradient>
<path class="st15" d="M301.4,796.8v-3.5c-1.3-0.1-2.6-0.4-3.8-0.9v3.5C298.8,796.3,300.1,796.6,301.4,796.8z"/>
<path class="st0" d="M306.8,1067.1c0,0,2,8.8,9.5,12.6h-11.4V1067L306.8,1067.1z"/>
<path class="st0" d="M76.6,174.7c0.2,8.5,0.3,17.1,0.4,25.6s0.2,17.1,0.2,25.6v0.6h-0.7l-18.8,0.1L39,226.9L1.3,227h-1v-1
	c0-12.1,0-24.2,0.1-36.4v-18.2c0-6.1,0-12.1,0.1-18.2v-0.8h0.8l32.9,0.3c11,0.2,21.9,0.3,32.9,0.5c-11,0.2-21.9,0.3-32.9,0.5
	L1.3,154l0.8-0.8c0.1,6.1,0.1,12.1,0.1,18.2v18.2c0,12.1,0.1,24.2,0.1,36.4l-1-1l37.7,0.1l18.8,0.1l18.8,0.1L76,226
	c0.1-8.6,0.1-17.1,0.3-25.6S76.5,183.3,76.6,174.7z"/>
<path class="st0" d="M76.6,174.7c0.2,8.5,0.3,17.1,0.4,25.6s0.2,17.1,0.2,25.6v0.6h-0.7l-18.8,0.1L39,226.9L1.3,227h-1v-1
	c0-12.1,0-24.2,0.1-36.4v-18.2c0-6.1,0-12.1,0.1-18.2v-0.8h0.8l32.9,0.3c11,0.2,21.9,0.3,32.9,0.5c-11,0.2-21.9,0.3-32.9,0.5
	L1.3,154l0.8-0.8c0.1,6.1,0.1,12.1,0.1,18.2v18.2c0,12.1,0.1,24.2,0.1,36.4l-1-1l37.7,0.1l18.8,0.1l18.8,0.1L76,226
	c0.1-8.6,0.1-17.1,0.3-25.6S76.5,183.3,76.6,174.7z"/>
<path d="M72.3,154c5.3,0,9.6,4.3,9.6,9.6c0,5.3-4.3,9.6-9.6,9.6c-5.3,0-9.6-4.3-9.6-9.6c0,0,0,0,0,0C62.8,158.3,67,154,72.3,154
	 M72.3,152c-6.4,0-11.6,5.2-11.6,11.6s5.2,11.6,11.6,11.6s11.6-5.2,11.6-11.6C83.9,157.2,78.7,152,72.3,152
	C72.3,152,72.3,152,72.3,152z"/>
<path class="st0" d="M72.3,152c6.4,0,11.6,5.2,11.6,11.6c0,6.4-5.2,11.6-11.6,11.6s-11.6-5.2-11.6-11.6c0,0,0,0,0,0
	C60.8,157.2,65.9,152,72.3,152C72.3,152,72.3,152,72.3,152 M72.3,151c-6.9,0-12.6,5.6-12.6,12.6s5.6,12.6,12.6,12.6
	s12.6-5.6,12.6-12.6C84.9,156.6,79.3,151,72.3,151z"/>
<polyline class="st8" points="61.9,157.3 29.7,157.3 29.7,200.4 72.5,200.4 72.5,175.7 "/>
<path class="st0" d="M76.6,277.7c0.2,8.5,0.3,17.1,0.4,25.6s0.2,17.1,0.2,25.6v0.6h-0.7l-18.8,0.1L39,329.8l-37.7,0.1h-1v-1
	c0-12.1,0-24.2,0.1-36.4v-18.2c0-6.1,0-12.1,0.1-18.2v-0.8h0.8l32.9,0.3c11,0.2,21.9,0.3,32.9,0.5c-11,0.2-21.9,0.3-32.9,0.5
	L1.3,257l0.8-0.8c0.1,6.1,0.1,12.1,0.1,18.2v18.2c0,12.1,0.1,24.2,0.1,36.4l-1-1l37.7,0.1l18.8,0.1l18.8,0.2l-0.6,0.6
	c0.1-8.5,0.1-17.1,0.3-25.6S76.5,286.2,76.6,277.7z"/>
<path class="st0" d="M76.6,277.7c0.2,8.5,0.3,17.1,0.4,25.6s0.2,17.1,0.2,25.6v0.6h-0.7l-18.8,0.1L39,329.8l-37.7,0.1h-1v-1
	c0-12.1,0-24.2,0.1-36.4v-18.2c0-6.1,0-12.1,0.1-18.2v-0.8h0.8l32.9,0.3c11,0.2,21.9,0.3,32.9,0.5c-11,0.2-21.9,0.3-32.9,0.5
	L1.3,257l0.8-0.8c0.1,6.1,0.1,12.1,0.1,18.2v18.2c0,12.1,0.1,24.2,0.1,36.4l-1-1l37.7,0.1l18.8,0.1l18.8,0.2l-0.6,0.6
	c0.1-8.5,0.1-17.1,0.3-25.6S76.5,286.2,76.6,277.7z"/>
<path d="M72.3,257c5.3,0,9.6,4.3,9.6,9.6c0,5.3-4.3,9.6-9.6,9.6c-5.3,0-9.6-4.3-9.6-9.6c0,0,0,0,0,0C62.8,261.3,67,257,72.3,257
	 M72.3,255c-6.4,0-11.6,5.2-11.6,11.6c0,6.4,5.2,11.6,11.6,11.6c6.4,0,11.6-5.2,11.6-11.6l0,0C83.9,260.2,78.7,255,72.3,255
	C72.3,255,72.3,255,72.3,255z"/>
<path class="st0" d="M72.3,255c6.4,0,11.6,5.2,11.6,11.6c0,6.4-5.2,11.6-11.6,11.6s-11.6-5.2-11.6-11.6c0,0,0,0,0,0
	C60.8,260.2,65.9,255,72.3,255C72.3,255,72.3,255,72.3,255 M72.3,254c-6.9,0-12.6,5.6-12.6,12.6c0,6.9,5.6,12.6,12.6,12.6
	c6.9,0,12.6-5.6,12.6-12.6l0,0C84.9,259.6,79.3,254,72.3,254z"/>
<polyline class="st8" points="61.9,260.2 29.7,260.2 29.7,303.4 72.5,303.4 72.5,278.7 "/>
<path class="st16" d="M587.3,1.1H460.7l72.6,59.1h75.3c0,0-5.6-15.7-21.2-18.5L587.3,1.1z"/>
<path class="st0" d="M76.6,380.6c0.2,8.5,0.3,17.1,0.4,25.6s0.2,17.1,0.2,25.6v0.6h-0.7l-18.8,0.2L39,432.8l-37.7,0.1h-1v-1
	c0-12.1,0-24.2,0.1-36.4v-18.2c0-6.1,0-12.1,0.1-18.2v-0.8h0.8l32.9,0.3c11,0.2,21.9,0.3,32.9,0.5c-11,0.2-21.9,0.3-32.9,0.5
	l-32.9,0.3l0.8-0.8c0.1,6.1,0.1,12.1,0.1,18.2v18.2c0,12.1,0.1,24.2,0.1,36.4l-1-1L39,431l18.8,0.1l18.8,0.2l-0.6,0.6
	c0.1-8.5,0.1-17.1,0.3-25.6S76.5,389.2,76.6,380.6z"/>
<path class="st0" d="M76.6,380.6c0.2,8.5,0.3,17.1,0.4,25.6s0.2,17.1,0.2,25.6v0.6h-0.7l-18.8,0.2L39,432.8l-37.7,0.1h-1v-1
	c0-12.1,0-24.2,0.1-36.4v-18.2c0-6.1,0-12.1,0.1-18.2v-0.8h0.8l32.9,0.3c11,0.2,21.9,0.3,32.9,0.5c-11,0.2-21.9,0.3-32.9,0.5
	l-32.9,0.3l0.8-0.8c0.1,6.1,0.1,12.1,0.1,18.2v18.2c0,12.1,0.1,24.2,0.1,36.4l-1-1L39,431l18.8,0.1l18.8,0.2l-0.6,0.6
	c0.1-8.5,0.1-17.1,0.3-25.6S76.5,389.2,76.6,380.6z"/>
<path d="M72.3,359.9c5.3,0,9.6,4.3,9.6,9.6c0,5.3-4.3,9.6-9.6,9.6c-5.3,0-9.6-4.3-9.6-9.6c0,0,0,0,0,0
	C62.8,364.2,67,359.9,72.3,359.9 M72.3,357.9c-6.4,0-11.6,5.2-11.6,11.6c0,6.4,5.2,11.6,11.6,11.6c6.4,0,11.6-5.2,11.6-11.6l0,0
	C83.9,363.1,78.7,357.9,72.3,357.9z"/>
<path class="st0" d="M72.3,357.9c6.4,0,11.6,5.2,11.6,11.6c0,6.4-5.2,11.6-11.6,11.6s-11.6-5.2-11.6-11.6c0,0,0,0,0,0
	C60.8,363.1,65.9,357.9,72.3,357.9 M72.3,356.9c-6.9,0-12.6,5.6-12.6,12.6c0,6.9,5.6,12.6,12.6,12.6c6.9,0,12.6-5.6,12.6-12.6l0,0
	C84.9,362.6,79.3,356.9,72.3,356.9z"/>
<polyline class="st8" points="61.9,363.2 29.7,363.2 29.7,406.3 72.5,406.3 72.5,381.6 "/>
<path class="st0" d="M76.6,483.6c0.2,8.5,0.3,17.1,0.4,25.6c0.1,8.5,0.2,17.1,0.2,25.6v0.6h-0.7l-18.8,0.2L39,535.7l-37.7,0.1h-1v-1
	c0-12.1,0-24.2,0.1-36.4v-18.2c0-6.1,0-12.1,0.1-18.2v-0.8h0.8l32.9,0.3c11,0.2,21.9,0.3,32.9,0.5c-11,0.2-21.9,0.3-32.9,0.5
	l-32.9,0.3l0.8-0.8c0.1,6.1,0.1,12.1,0.1,18.2v18.2c0,12.1,0.1,24.3,0.1,36.4l-1-1L39,534l18.8,0.1l18.8,0.2l-0.6,0.6
	c0.1-8.5,0.1-17.1,0.3-25.6S76.5,492.1,76.6,483.6z"/>
<path class="st0" d="M76.6,483.6c0.2,8.5,0.3,17.1,0.4,25.6c0.1,8.5,0.2,17.1,0.2,25.6v0.6h-0.7l-18.8,0.2L39,535.7l-37.7,0.1h-1v-1
	c0-12.1,0-24.2,0.1-36.4v-18.2c0-6.1,0-12.1,0.1-18.2v-0.8h0.8l32.9,0.3c11,0.2,21.9,0.3,32.9,0.5c-11,0.2-21.9,0.3-32.9,0.5
	l-32.9,0.3l0.8-0.8c0.1,6.1,0.1,12.1,0.1,18.2v18.2c0,12.1,0.1,24.3,0.1,36.4l-1-1L39,534l18.8,0.1l18.8,0.2l-0.6,0.6
	c0.1-8.5,0.1-17.1,0.3-25.6S76.5,492.1,76.6,483.6z"/>
<path d="M72.3,462.9c5.3,0,9.6,4.3,9.6,9.6c0,5.3-4.3,9.6-9.6,9.6c-5.3,0-9.6-4.3-9.6-9.6c0,0,0,0,0,0
	C62.8,467.2,67,462.9,72.3,462.9 M72.3,460.9c-6.4,0-11.6,5.2-11.6,11.6c0,6.4,5.2,11.6,11.6,11.6c6.4,0,11.6-5.2,11.6-11.6l0,0
	C83.9,466.1,78.7,460.9,72.3,460.9z"/>
<path class="st0" d="M72.3,460.9c6.4,0,11.6,5.2,11.6,11.6c0,6.4-5.2,11.6-11.6,11.6s-11.6-5.2-11.6-11.6c0,0,0,0,0,0
	C60.8,466.1,65.9,460.9,72.3,460.9 M72.3,459.9c-6.9,0-12.6,5.6-12.6,12.6c0,6.9,5.6,12.6,12.6,12.6c6.9,0,12.6-5.6,12.6-12.6l0,0
	C84.9,465.5,79.3,459.9,72.3,459.9z"/>
<polyline class="st8" points="61.9,466.1 29.7,466.1 29.7,509.3 72.5,509.3 72.5,484.6 "/>
<path class="st0" d="M76.6,586.6c0.2,8.5,0.3,17.1,0.4,25.6s0.2,17.1,0.2,25.6v0.6h-0.7l-18.8,0.2L39,638.7l-37.7,0.1h-1v-1
	c0-12.1,0-24.2,0.1-36.4v-18.2c0-6.1,0-12.1,0.1-18.2v-0.8h0.8l32.9,0.3c11,0.2,21.9,0.3,32.9,0.5c-11,0.2-21.9,0.3-32.9,0.5
	l-32.9,0.3l0.8-0.8c0.1,6.1,0.1,12.1,0.1,18.2v18.2c0,12.1,0.1,24.2,0.1,36.4l-1-1l37.7,0.1l18.8,0.1l18.8,0.2l-0.6,0.6
	c0.1-8.5,0.1-17.1,0.3-25.6S76.5,595.1,76.6,586.6z"/>
<path class="st0" d="M76.6,586.6c0.2,8.5,0.3,17.1,0.4,25.6s0.2,17.1,0.2,25.6v0.6h-0.7l-18.8,0.2L39,638.7l-37.7,0.1h-1v-1
	c0-12.1,0-24.2,0.1-36.4v-18.2c0-6.1,0-12.1,0.1-18.2v-0.8h0.8l32.9,0.3c11,0.2,21.9,0.3,32.9,0.5c-11,0.2-21.9,0.3-32.9,0.5
	l-32.9,0.3l0.8-0.8c0.1,6.1,0.1,12.1,0.1,18.2v18.2c0,12.1,0.1,24.2,0.1,36.4l-1-1l37.7,0.1l18.8,0.1l18.8,0.2l-0.6,0.6
	c0.1-8.5,0.1-17.1,0.3-25.6S76.5,595.1,76.6,586.6z"/>
<path d="M72.3,565.8c5.3,0,9.6,4.3,9.6,9.6s-4.3,9.6-9.6,9.6c-5.3,0-9.6-4.3-9.6-9.6c0,0,0,0,0,0C62.8,570.1,67,565.9,72.3,565.8
	 M72.3,563.8c-6.4,0-11.6,5.2-11.6,11.6S65.9,587,72.3,587s11.6-5.2,11.6-11.6S78.7,563.8,72.3,563.8
	C72.3,563.8,72.3,563.8,72.3,563.8z"/>
<path class="st0" d="M72.3,563.8c6.4,0,11.6,5.2,11.6,11.6S78.7,587,72.4,587c-6.4,0-11.6-5.2-11.6-11.6c0,0,0,0,0,0
	C60.8,569,65.9,563.8,72.3,563.8 M72.3,562.8c-6.9,0-12.6,5.6-12.6,12.6S65.4,588,72.3,588s12.6-5.6,12.6-12.6
	C84.9,568.5,79.3,562.8,72.3,562.8z"/>
<polyline class="st8" points="61.9,569.1 29.7,569.1 29.7,612.3 72.5,612.3 72.5,587.5 "/>
<path class="st0" d="M1842.6,174.7c0.2,8.5,0.3,17.1,0.4,25.6s0.2,17.1,0.3,25.6l-0.6-0.6l18.8-0.1l18.8-0.1l37.7-0.1l-1,1
	c0-12.1,0-24.2,0.1-36.4v-18.2c0-6.1,0-12.1,0.1-18.2l0.8,0.8l-32.9-0.3c-11-0.2-21.9-0.3-32.9-0.5c11-0.2,21.9-0.3,32.9-0.5
	l32.9-0.3h0.8v0.8c0.1,6.1,0.1,12.1,0.1,18.2v18.2c0,12.1,0.1,24.2,0.1,36.4v1h-1l-37.7-0.1l-18.8-0.1l-18.8-0.1h-0.7V226
	c0.1-8.6,0.1-17.1,0.3-25.6S1842.4,183.3,1842.6,174.7z"/>
<path class="st0" d="M1842.6,174.7c0.2,8.5,0.3,17.1,0.4,25.6s0.2,17.1,0.3,25.6l-0.6-0.6l18.8-0.1l18.8-0.1l37.7-0.1l-1,1
	c0-12.1,0-24.2,0.1-36.4v-18.2c0-6.1,0-12.1,0.1-18.2l0.8,0.8l-32.9-0.3c-11-0.2-21.9-0.3-32.9-0.5c11-0.2,21.9-0.3,32.9-0.5
	l32.9-0.3h0.8v0.8c0.1,6.1,0.1,12.1,0.1,18.2v18.2c0,12.1,0.1,24.2,0.1,36.4v1h-1l-37.7-0.1l-18.8-0.1l-18.8-0.1h-0.7V226
	c0.1-8.6,0.1-17.1,0.3-25.6S1842.4,183.3,1842.6,174.7z"/>
<path d="M1846.9,154c5.3,0,9.6,4.3,9.6,9.6s-4.3,9.6-9.6,9.6c-5.3,0-9.6-4.3-9.6-9.6c0,0,0,0,0,0
	C1837.3,158.3,1841.6,154,1846.9,154 M1846.9,152c-6.4,0-11.6,5.2-11.6,11.6c0,6.4,5.2,11.6,11.6,11.6c6.4,0,11.6-5.2,11.6-11.6
	c0,0,0,0,0,0C1858.5,157.2,1853.3,152,1846.9,152C1846.9,152,1846.9,152,1846.9,152z"/>
<path class="st0" d="M1846.9,152c6.4,0,11.6,5.2,11.6,11.6s-5.2,11.6-11.6,11.6c-6.4,0-11.6-5.2-11.6-11.6c0,0,0,0,0,0
	C1835.3,157.2,1840.5,152,1846.9,152C1846.9,152,1846.9,152,1846.9,152 M1846.9,151c-6.9,0-12.6,5.6-12.6,12.6
	c0,6.9,5.6,12.6,12.6,12.6s12.6-5.6,12.6-12.6c0,0,0,0,0,0C1859.5,156.6,1853.8,151,1846.9,151z"/>
<polyline class="st8" points="1857.3,157.3 1889.5,157.3 1889.5,200.4 1846.8,200.4 1846.8,175.7 "/>
<path class="st0" d="M1842.6,277.7c0.2,8.5,0.3,17.1,0.4,25.6s0.2,17.1,0.3,25.6l-0.6-0.6l18.8-0.2l18.8-0.1l37.7-0.1l-1,1
	c0-12.1,0-24.2,0.1-36.4v-18.2c0-6.1,0-12.1,0.1-18.2l0.8,0.8l-32.9-0.3c-11-0.2-21.9-0.3-32.9-0.5c11-0.2,21.9-0.3,32.9-0.5
	l32.9-0.3h0.8v0.8c0.1,6.1,0.1,12.1,0.1,18.2v18.2c0,12.1,0.1,24.2,0.1,36.4v1h-1l-37.7-0.1l-18.8-0.1l-18.8-0.1h-0.7V329
	c0.1-8.5,0.1-17.1,0.3-25.6S1842.4,286.2,1842.6,277.7z"/>
<path class="st0" d="M1842.6,277.7c0.2,8.5,0.3,17.1,0.4,25.6s0.2,17.1,0.3,25.6l-0.6-0.6l18.8-0.2l18.8-0.1l37.7-0.1l-1,1
	c0-12.1,0-24.2,0.1-36.4v-18.2c0-6.1,0-12.1,0.1-18.2l0.8,0.8l-32.9-0.3c-11-0.2-21.9-0.3-32.9-0.5c11-0.2,21.9-0.3,32.9-0.5
	l32.9-0.3h0.8v0.8c0.1,6.1,0.1,12.1,0.1,18.2v18.2c0,12.1,0.1,24.2,0.1,36.4v1h-1l-37.7-0.1l-18.8-0.1l-18.8-0.1h-0.7V329
	c0.1-8.5,0.1-17.1,0.3-25.6S1842.4,286.2,1842.6,277.7z"/>
<path d="M1846.9,257c5.3,0,9.6,4.3,9.6,9.6s-4.3,9.6-9.6,9.6s-9.6-4.3-9.6-9.6c0,0,0,0,0,0C1837.3,261.3,1841.6,257,1846.9,257
	 M1846.9,255c-6.4,0-11.6,5.2-11.6,11.6c0,6.4,5.2,11.6,11.6,11.6c6.4,0,11.6-5.2,11.6-11.6c0,0,0,0,0,0
	C1858.5,260.2,1853.3,255,1846.9,255C1846.9,255,1846.9,255,1846.9,255z"/>
<path class="st0" d="M1846.9,255c6.4,0,11.6,5.2,11.6,11.6s-5.2,11.6-11.6,11.6c-6.4,0-11.6-5.2-11.6-11.6c0,0,0,0,0,0
	C1835.3,260.2,1840.5,255,1846.9,255C1846.9,255,1846.9,255,1846.9,255 M1846.9,254c-6.9,0-12.6,5.6-12.6,12.6
	c0,6.9,5.6,12.6,12.6,12.6s12.6-5.6,12.6-12.6c0,0,0,0,0,0C1859.5,259.6,1853.8,254,1846.9,254z"/>
<polyline class="st8" points="1857.3,260.2 1889.5,260.2 1889.5,303.4 1846.8,303.4 1846.8,278.7 "/>
<path class="st0" d="M1842.6,380.6c0.2,8.5,0.3,17.1,0.4,25.6s0.2,17.1,0.3,25.6l-0.6-0.6l18.8-0.2l18.8-0.1l37.7-0.1l-1,1
	c0-12.1,0-24.2,0.1-36.4v-18.2c0-6.1,0-12.1,0.1-18.2l0.8,0.8l-32.9-0.3c-11-0.2-21.9-0.3-32.9-0.5c11-0.2,21.9-0.3,32.9-0.5
	l32.9-0.3h0.8v0.8c0.1,6.1,0.1,12.1,0.1,18.2v18.2c0,12.1,0.1,24.2,0.1,36.4v1h-1l-37.7-0.1l-18.8-0.1l-18.8-0.2h-0.7v-0.6
	c0.1-8.5,0.1-17.1,0.3-25.6S1842.4,389.2,1842.6,380.6z"/>
<path class="st0" d="M1842.6,380.6c0.2,8.5,0.3,17.1,0.4,25.6s0.2,17.1,0.3,25.6l-0.6-0.6l18.8-0.2l18.8-0.1l37.7-0.1l-1,1
	c0-12.1,0-24.2,0.1-36.4v-18.2c0-6.1,0-12.1,0.1-18.2l0.8,0.8l-32.9-0.3c-11-0.2-21.9-0.3-32.9-0.5c11-0.2,21.9-0.3,32.9-0.5
	l32.9-0.3h0.8v0.8c0.1,6.1,0.1,12.1,0.1,18.2v18.2c0,12.1,0.1,24.2,0.1,36.4v1h-1l-37.7-0.1l-18.8-0.1l-18.8-0.2h-0.7v-0.6
	c0.1-8.5,0.1-17.1,0.3-25.6S1842.4,389.2,1842.6,380.6z"/>
<path d="M1846.9,359.9c5.3,0,9.6,4.3,9.6,9.6s-4.3,9.6-9.6,9.6s-9.6-4.3-9.6-9.6c0,0,0,0,0,0
	C1837.3,364.2,1841.6,359.9,1846.9,359.9 M1846.9,357.9c-6.4,0-11.6,5.2-11.6,11.6c0,6.4,5.2,11.6,11.6,11.6
	c6.4,0,11.6-5.2,11.6-11.6c0,0,0,0,0,0C1858.5,363.1,1853.3,357.9,1846.9,357.9z"/>
<path class="st0" d="M1846.9,357.9c6.4,0,11.6,5.2,11.6,11.6s-5.2,11.6-11.6,11.6c-6.4,0-11.6-5.2-11.6-11.6c0,0,0,0,0,0
	C1835.3,363.1,1840.5,357.9,1846.9,357.9 M1846.9,356.9c-6.9,0-12.6,5.6-12.6,12.6c0,6.9,5.6,12.6,12.6,12.6s12.6-5.6,12.6-12.6
	c0,0,0,0,0,0C1859.5,362.6,1853.8,356.9,1846.9,356.9z"/>
<polyline class="st8" points="1857.3,363.2 1889.5,363.2 1889.5,406.3 1846.8,406.3 1846.8,381.6 "/>
<path class="st0" d="M1842.6,483.6c0.2,8.5,0.3,17.1,0.4,25.6c0.1,8.5,0.2,17.1,0.3,25.6l-0.6-0.6l18.8-0.2l18.8-0.1l37.7-0.1l-1,1
	c0-12.1,0-24.2,0.1-36.4v-18.2c0-6.1,0-12.1,0.1-18.2l0.8,0.8l-32.9-0.3c-11-0.2-21.9-0.3-32.9-0.5c11-0.2,21.9-0.3,32.9-0.5
	l32.9-0.3h0.8v0.8c0.1,6.1,0.1,12.1,0.1,18.2v18.2c0,12.1,0.1,24.2,0.1,36.4v1h-1l-37.7-0.1l-18.8-0.1l-18.8-0.2h-0.7v-0.6
	c0.1-8.5,0.1-17.1,0.3-25.6S1842.4,492.1,1842.6,483.6z"/>
<path class="st0" d="M1842.6,483.6c0.2,8.5,0.3,17.1,0.4,25.6c0.1,8.5,0.2,17.1,0.3,25.6l-0.6-0.6l18.8-0.2l18.8-0.1l37.7-0.1l-1,1
	c0-12.1,0-24.2,0.1-36.4v-18.2c0-6.1,0-12.1,0.1-18.2l0.8,0.8l-32.9-0.3c-11-0.2-21.9-0.3-32.9-0.5c11-0.2,21.9-0.3,32.9-0.5
	l32.9-0.3h0.8v0.8c0.1,6.1,0.1,12.1,0.1,18.2v18.2c0,12.1,0.1,24.2,0.1,36.4v1h-1l-37.7-0.1l-18.8-0.1l-18.8-0.2h-0.7v-0.6
	c0.1-8.5,0.1-17.1,0.3-25.6S1842.4,492.1,1842.6,483.6z"/>
<path d="M1846.9,462.9c5.3,0,9.6,4.3,9.6,9.6s-4.3,9.6-9.6,9.6s-9.6-4.3-9.6-9.6c0,0,0,0,0,0
	C1837.3,467.2,1841.6,462.9,1846.9,462.9 M1846.9,460.9c-6.4,0-11.6,5.2-11.6,11.6c0,6.4,5.2,11.6,11.6,11.6
	c6.4,0,11.6-5.2,11.6-11.6c0,0,0,0,0,0C1858.5,466.1,1853.3,460.9,1846.9,460.9z"/>
<path class="st0" d="M1846.9,460.9c6.4,0,11.6,5.2,11.6,11.6s-5.2,11.6-11.6,11.6c-6.4,0-11.6-5.2-11.6-11.6c0,0,0,0,0,0
	C1835.3,466.1,1840.5,460.9,1846.9,460.9 M1846.9,459.9c-6.9,0-12.6,5.6-12.6,12.6c0,6.9,5.6,12.6,12.6,12.6s12.6-5.6,12.6-12.6
	c0,0,0,0,0,0C1859.4,465.5,1853.8,459.9,1846.9,459.9z"/>
<polyline class="st8" points="1857.3,466.1 1889.5,466.1 1889.5,509.3 1846.8,509.3 1846.8,484.6 "/>
<path class="st0" d="M1842.6,586.6c0.2,8.5,0.3,17.1,0.4,25.6s0.2,17.1,0.3,25.6l-0.6-0.6l18.8-0.2l18.8-0.1l37.7-0.1l-1,1
	c0-12.1,0-24.2,0.1-36.4v-18.2c0-6.1,0-12.1,0.1-18.2l0.8,0.8l-32.9-0.3c-11-0.2-21.9-0.3-32.9-0.5c11-0.2,21.9-0.3,32.9-0.5
	l32.9-0.3h0.8v0.8c0.1,6.1,0.1,12.1,0.1,18.2v18.2c0,12.1,0.1,24.2,0.1,36.4v1h-1l-37.7-0.1l-18.8-0.1l-18.8-0.2h-0.7v-0.6
	c0.1-8.5,0.1-17.1,0.3-25.6S1842.4,595.1,1842.6,586.6z"/>
<path class="st0" d="M1842.6,586.6c0.2,8.5,0.3,17.1,0.4,25.6s0.2,17.1,0.3,25.6l-0.6-0.6l18.8-0.2l18.8-0.1l37.7-0.1l-1,1
	c0-12.1,0-24.2,0.1-36.4v-18.2c0-6.1,0-12.1,0.1-18.2l0.8,0.8l-32.9-0.3c-11-0.2-21.9-0.3-32.9-0.5c11-0.2,21.9-0.3,32.9-0.5
	l32.9-0.3h0.8v0.8c0.1,6.1,0.1,12.1,0.1,18.2v18.2c0,12.1,0.1,24.2,0.1,36.4v1h-1l-37.7-0.1l-18.8-0.1l-18.8-0.2h-0.7v-0.6
	c0.1-8.5,0.1-17.1,0.3-25.6S1842.4,595.1,1842.6,586.6z"/>
<path d="M1846.9,565.8c5.3,0,9.6,4.3,9.6,9.6s-4.3,9.6-9.6,9.6c-5.3,0-9.6-4.3-9.6-9.6l0,0C1837.3,570.1,1841.6,565.8,1846.9,565.8
	 M1846.9,563.8c-6.4,0-11.6,5.2-11.6,11.6c0,6.4,5.2,11.6,11.6,11.6c6.4,0,11.6-5.2,11.6-11.6c0,0,0,0,0,0
	C1858.5,569,1853.3,563.8,1846.9,563.8z"/>
<path class="st0" d="M1846.9,563.8c6.4,0,11.6,5.2,11.6,11.6s-5.2,11.6-11.6,11.6c-6.4,0-11.6-5.2-11.6-11.6l0,0
	C1835.3,569,1840.5,563.8,1846.9,563.8 M1846.9,562.8c-6.9,0-12.6,5.6-12.6,12.6c0,6.9,5.6,12.6,12.6,12.6s12.6-5.6,12.6-12.6
	c0,0,0,0,0,0C1859.4,568.5,1853.8,562.9,1846.9,562.8z"/>
<polyline class="st8" points="1857.3,569.1 1889.5,569.1 1889.5,612.3 1846.8,612.3 1846.8,587.5 "/>
<path class="st0" d="M1064.3,39.7v9.4c-2.4,0.6-4.8,1.4-7.1,2.5c-6,2.7-14,8.5-15.5,21.2h-74.6v-5.2h70.5
	c5.6-19.7,22.5-22.4,22.5-22.4l0.1-9.1L1064.3,39.7z"/>
<linearGradient id="SVGID_9_" gradientUnits="userSpaceOnUse" x1="1062.21" y1="1030.91" x2="1062.21" y2="1039.33" gradientTransform="matrix(1 0 0 -1 0 1080)">
	<stop  offset="0.39" style="stop-color:#FFFFFF"/>
	<stop  offset="0.45" style="stop-color:#F7F7F7"/>
	<stop  offset="0.54" style="stop-color:#E1E1E1"/>
	<stop  offset="0.66" style="stop-color:#BEBEBE"/>
	<stop  offset="0.79" style="stop-color:#8C8C8C"/>
	<stop  offset="0.94" style="stop-color:#4D4D4D"/>
	<stop  offset="0.96" style="stop-color:#474747"/>
</linearGradient>
<path class="st17" d="M1060.1,41.3c1.4-0.3,2.8-0.5,4.3-0.6v8.4l-4.2-3.9L1060.1,41.3z"/>
<linearGradient id="SVGID_10_" gradientUnits="userSpaceOnUse" x1="2043.53" y1="1441.54" x2="2043.53" y2="1451.26" gradientTransform="matrix(6.123234e-17 -1 -1 -6.123234e-17 2496.8401 2103.9199)">
	<stop  offset="0.16" style="stop-color:#FFFFFF"/>
	<stop  offset="0.25" style="stop-color:#F8F8F8"/>
	<stop  offset="0.39" style="stop-color:#E5E5E5"/>
	<stop  offset="0.55" style="stop-color:#C6C6C6"/>
	<stop  offset="0.72" style="stop-color:#9A9A9A"/>
	<stop  offset="0.91" style="stop-color:#636363"/>
	<stop  offset="1" style="stop-color:#474747"/>
</linearGradient>
<path class="st18" d="M1045.6,61.4l1.4-2h8.3l-1.9,2H1045.6z"/>
<linearGradient id="SVGID_11_" gradientUnits="userSpaceOnUse" x1="2043.52" y1="26.53" x2="2043.52" y2="32.3399" gradientTransform="matrix(0 -1 1 0 1008.64 2103.9199)">
	<stop  offset="0.16" style="stop-color:#FFFFFF"/>
	<stop  offset="0.25" style="stop-color:#F8F8F8"/>
	<stop  offset="0.39" style="stop-color:#E5E5E5"/>
	<stop  offset="0.54" style="stop-color:#C6C6C6"/>
	<stop  offset="0.72" style="stop-color:#9A9A9A"/>
	<stop  offset="0.91" style="stop-color:#636363"/>
	<stop  offset="1" style="stop-color:#454545"/>
</linearGradient>
<path class="st19" d="M1039.9,61.4c0.3-0.7,0.7-1.4,1.1-2h-4.1l-1.7,2H1039.9z"/>
<linearGradient id="SVGID_12_" gradientUnits="userSpaceOnUse" x1="2052.1401" y1="1430.73" x2="2052.1401" y2="1441.1799" gradientTransform="matrix(6.123234e-17 -1 -1 -6.123234e-17 2496.8401 2103.9199)">
	<stop  offset="0.16" style="stop-color:#FFFFFF"/>
	<stop  offset="0.25" style="stop-color:#F8F8F8"/>
	<stop  offset="0.39" style="stop-color:#E5E5E5"/>
	<stop  offset="0.55" style="stop-color:#C6C6C6"/>
	<stop  offset="0.72" style="stop-color:#9A9A9A"/>
	<stop  offset="0.91" style="stop-color:#636363"/>
	<stop  offset="1" style="stop-color:#474747"/>
</linearGradient>
<path class="st20" d="M1055.7,52.3c0,0,1.3-0.7,2.1-1h8.3l-0.9,1H1055.7z"/>
<linearGradient id="SVGID_13_" gradientUnits="userSpaceOnUse" x1="2095.2" y1="1416.1801" x2="2095.2" y2="1424.8301" gradientTransform="matrix(6.123234e-17 -1 -1 -6.123234e-17 2496.8401 2103.9199)">
	<stop  offset="0.16" style="stop-color:#FFFFFF"/>
	<stop  offset="0.25" style="stop-color:#F8F8F8"/>
	<stop  offset="0.39" style="stop-color:#E5E5E5"/>
	<stop  offset="0.55" style="stop-color:#C6C6C6"/>
	<stop  offset="0.72" style="stop-color:#9A9A9A"/>
	<stop  offset="0.91" style="stop-color:#636363"/>
	<stop  offset="1" style="stop-color:#474747"/>
</linearGradient>
<path class="st21" d="M1072,9.2c0.1-0.3,0.1-0.7,0.2-1h8.4l-0.9,1H1072z"/>
<path class="st0" d="M851.8,0c0,0,8,3.3,8,11.6c0,4.6,0,28.9,0,28.9c21.7-0.9,34,10.9,35.3,20.9h6.3c0,0-5-25-35.7-27.6l-0.2-30
	h100.5V0H851.8z"/>
<path class="st2" d="M895.3,60.4L609,60.3c-3.3-9.7-11.6-16.8-21.7-18.5l0-40.6h271.3"/>
<path class="st3" d="M880.1,51.8H616.5c-3.4-8.4-10.2-14.9-18.7-18.1V8.8l263-0.1"/>
<path class="st0" d="M867.2,39.7v9.4c2.4,0.6,4.8,1.4,7.1,2.4c6,2.7,14,8.5,15.5,21.2h77.6v-5.2H894c-5.5-19.7-22.5-22.3-22.5-22.3
	l-0.1-9.1L867.2,39.7z"/>
<linearGradient id="SVGID_14_" gradientUnits="userSpaceOnUse" x1="2474.23" y1="1030.9" x2="2474.23" y2="1039.33" gradientTransform="matrix(-1 0 0 -1 3343.5898 1080)">
	<stop  offset="0.39" style="stop-color:#FFFFFF"/>
	<stop  offset="0.45" style="stop-color:#F7F7F7"/>
	<stop  offset="0.54" style="stop-color:#E1E1E1"/>
	<stop  offset="0.66" style="stop-color:#BEBEBE"/>
	<stop  offset="0.79" style="stop-color:#8C8C8C"/>
	<stop  offset="0.94" style="stop-color:#4D4D4D"/>
	<stop  offset="0.96" style="stop-color:#474747"/>
</linearGradient>
<path class="st22" d="M871.5,41.3c-1.4-0.3-2.8-0.5-4.3-0.6v8.4l4.2-3.9L871.5,41.3z"/>
<linearGradient id="SVGID_15_" gradientUnits="userSpaceOnUse" x1="2043.53" y1="29.52" x2="2043.53" y2="39.25" gradientTransform="matrix(0 -1 1 0 846.75 2103.9199)">
	<stop  offset="0.16" style="stop-color:#FFFFFF"/>
	<stop  offset="0.25" style="stop-color:#F8F8F8"/>
	<stop  offset="0.39" style="stop-color:#E5E5E5"/>
	<stop  offset="0.55" style="stop-color:#C6C6C6"/>
	<stop  offset="0.72" style="stop-color:#9A9A9A"/>
	<stop  offset="0.91" style="stop-color:#636363"/>
	<stop  offset="1" style="stop-color:#474747"/>
</linearGradient>
<path class="st23" d="M886,61.4l-1.4-2h-8.3l1.9,2H886z"/>
<linearGradient id="SVGID_16_" gradientUnits="userSpaceOnUse" x1="2043.51" y1="1438.55" x2="2043.51" y2="1444.3601" gradientTransform="matrix(6.123234e-17 -1 -1 -6.123234e-17 2334.95 2103.9199)">
	<stop  offset="0.16" style="stop-color:#FFFFFF"/>
	<stop  offset="0.25" style="stop-color:#F8F8F8"/>
	<stop  offset="0.39" style="stop-color:#E5E5E5"/>
	<stop  offset="0.54" style="stop-color:#C6C6C6"/>
	<stop  offset="0.72" style="stop-color:#9A9A9A"/>
	<stop  offset="0.91" style="stop-color:#636363"/>
	<stop  offset="1" style="stop-color:#454545"/>
</linearGradient>
<path class="st24" d="M891.7,61.4c-0.3-0.7-0.7-1.4-1.1-2h4.1l1.7,2H891.7z"/>
<linearGradient id="SVGID_17_" gradientUnits="userSpaceOnUse" x1="2052.1301" y1="18.72" x2="2052.1301" y2="29.16" gradientTransform="matrix(0 -1 1 0 846.75 2103.9199)">
	<stop  offset="0.16" style="stop-color:#FFFFFF"/>
	<stop  offset="0.25" style="stop-color:#F8F8F8"/>
	<stop  offset="0.39" style="stop-color:#E5E5E5"/>
	<stop  offset="0.55" style="stop-color:#C6C6C6"/>
	<stop  offset="0.72" style="stop-color:#9A9A9A"/>
	<stop  offset="0.91" style="stop-color:#636363"/>
	<stop  offset="1" style="stop-color:#474747"/>
</linearGradient>
<path class="st25" d="M875.9,52.3c-0.7-0.4-1.4-0.7-2.1-1h-8.3l0.9,1H875.9z"/>
<linearGradient id="SVGID_18_" gradientUnits="userSpaceOnUse" x1="2095.2" y1="4.17" x2="2095.2" y2="12.81" gradientTransform="matrix(0 -1 1 0 846.75 2103.9199)">
	<stop  offset="0.16" style="stop-color:#FFFFFF"/>
	<stop  offset="0.25" style="stop-color:#F8F8F8"/>
	<stop  offset="0.39" style="stop-color:#E5E5E5"/>
	<stop  offset="0.55" style="stop-color:#C6C6C6"/>
	<stop  offset="0.72" style="stop-color:#9A9A9A"/>
	<stop  offset="0.91" style="stop-color:#636363"/>
	<stop  offset="1" style="stop-color:#474747"/>
</linearGradient>
<path class="st26" d="M859.6,9.2c-0.1-0.3-0.1-0.7-0.2-1h-8.4l0.9,0.9L859.6,9.2z"/>
<rect x="1762.1" y="27.6" class="st8" width="130.1" height="55.4"/>
<rect x="26.9" y="27.3" class="st8" width="130" height="55.4"/>
<path class="st0" d="M29.7,929.3c10.3-0.2,20.5-0.3,30.8-0.5l30.8-0.3c20.5-0.2,41.1-0.2,61.6-0.2c20.5,0.1,41.1,0.1,61.6,0.2
	l30.8,0.3c10.3,0.2,20.5,0.3,30.8,0.5c-10.3,0.2-20.5,0.3-30.8,0.5l-30.8,0.3c-20.5,0.2-41.1,0.2-61.6,0.2
	c-20.5-0.1-41.1-0.1-61.6-0.2l-30.8-0.3C50.2,929.6,40,929.5,29.7,929.3z"/>
<linearGradient id="SVGID_19_" gradientUnits="userSpaceOnUse" x1="944.61" y1="1044.375" x2="991.12" y2="1044.375" gradientTransform="matrix(1 0 0 -1 0 1080)">
	<stop  offset="0" style="stop-color:#183439;stop-opacity:0"/>
	<stop  offset="3.000000e-02" style="stop-color:#0D2228;stop-opacity:0.47"/>
	<stop  offset="7.000000e-02" style="stop-color:#03131A;stop-opacity:0.88"/>
	<stop  offset="0.13" style="stop-color:#000E16"/>
	<stop  offset="0.52" style="stop-color:#000E16"/>
	<stop  offset="0.89" style="stop-color:#000E16"/>
	<stop  offset="0.94" style="stop-color:#03131B;stop-opacity:0.86"/>
	<stop  offset="0.98" style="stop-color:#0E252B;stop-opacity:0.4"/>
	<stop  offset="1" style="stop-color:#183439;stop-opacity:0"/>
</linearGradient>
<rect x="944.6" y="3.8" class="st27" width="46.5" height="63.7"/>
<linearGradient id="SVGID_20_" gradientUnits="userSpaceOnUse" x1="967.53" y1="1079.5" x2="967.53" y2="1007.75" gradientTransform="matrix(1 0 0 -1 0 1080)">
	<stop  offset="0" style="stop-color:#183439"/>
	<stop  offset="0.22" style="stop-color:#142E33"/>
	<stop  offset="0.52" style="stop-color:#091C23"/>
	<stop  offset="0.7" style="stop-color:#000E16"/>
</linearGradient>
<rect x="950.3" y="0.5" class="st28" width="34.4" height="71.8"/>
<path class="st0" d="M984.2,1v70.8h-33.4V1H984.2 M985.2,0h-35.4v72.8h35.4V0z"/>
<polygon class="st0" points="973.4,30.7 973.4,21.2 961.5,21.2 961.5,30.5 971,40 971,45.9 963.9,45.9 963.9,38.8 961.5,38.8 
	961.5,48.3 973.4,48.3 973.4,39 963.9,29.5 963.9,23.6 971,23.6 971,30.7 "/>
<polygon class="st0" points="966.3,26 966.3,28.3 968.6,30.6 968.6,26 "/>
<polygon class="st0" points="976,36 973.7,36 971.2,33.5 976,33.5 "/>
<polygon class="st0" points="958.9,33.5 961.3,33.5 963.7,36 958.9,36 "/>
<polygon class="st0" points="968.7,43.5 968.7,41.2 966.3,38.9 966.3,43.5 "/>
</svg>
